<svg width="194" height="79" viewBox="0 0 194 79" fill="none" xmlns="http://www.w3.org/2000/svg">
<path d="M167.147 34.3548C163.885 35.0996 155.269 35.5133 155.269 35.5133L154.209 38.8788C154.209 38.8788 158.475 38.5202 161.598 38.8236C161.598 38.8236 162.602 38.7408 162.714 39.927C162.77 41.1408 162.63 42.4097 162.63 42.4097C162.63 42.4097 162.546 43.1545 161.515 43.3476C160.316 43.5407 152.229 43.8993 152.229 43.8993L150.919 48.2578C150.919 48.2578 150.445 49.2509 151.532 48.975C152.536 48.6992 161.013 47.0992 162.128 47.3199C163.299 47.5958 164.638 49.1957 164.247 50.6302C163.801 52.3681 155.325 57.7196 150.194 57.361C150.194 57.361 147.489 57.5265 145.231 53.9128C143.056 50.4647 145.984 43.9821 145.984 43.9821C145.984 43.9821 144.673 40.9477 145.649 39.8443C145.649 39.8443 146.207 39.3753 147.88 39.2374L149.971 34.9892C149.971 34.9892 147.601 35.1271 146.207 33.4169C144.924 31.7617 144.812 31.0445 145.816 30.6031C146.876 30.0514 156.691 28.3135 163.439 28.5342C163.439 28.5342 165.809 28.2584 167.9 32.3134C167.9 32.3134 168.848 33.9686 167.175 34.3548M141.717 50.6853C140.881 52.6991 138.566 54.8232 135.778 53.5266C132.934 52.2025 128.445 43.1545 128.445 43.1545C128.445 43.1545 126.772 39.7891 126.437 39.8994C126.437 39.8994 126.075 39.2374 125.879 42.9338C125.601 46.6027 125.935 53.7473 124.402 54.8783C123.007 55.9817 121.334 55.5128 120.386 54.2163C119.606 52.9198 119.271 49.8026 119.717 44.3683C120.219 38.9339 121.474 33.141 123.063 31.3479C124.736 29.5273 126.075 30.8514 126.576 31.3479C126.576 31.3479 128.724 33.2789 132.348 38.9891L132.962 40.0374C132.962 40.0374 136.252 45.4717 136.587 45.4441C136.587 45.4441 136.866 45.72 137.089 45.4993C137.423 45.4165 137.312 43.6511 137.312 43.6511C137.312 43.6511 136.698 37.7754 133.631 27.8446C133.631 27.8446 133.185 26.5757 133.492 25.3619C133.77 24.2585 134.969 24.8102 134.969 24.8102C134.969 24.8102 139.598 27.017 141.857 34.4651C144.087 41.9132 142.582 48.6716 141.745 50.6853M119.02 31.5686C118.574 32.341 118.379 33.4169 116.455 33.7203C116.455 33.7203 97.7726 35.0168 96.8524 36.3133C96.8524 36.3133 96.239 37.0857 97.2428 37.2788C98.3024 37.4995 102.541 38.0512 104.548 38.1615C106.723 38.1615 114.029 38.2167 116.706 41.4718C116.706 41.4718 118.239 43.0166 118.183 46.5199C118.128 50.106 117.486 51.375 116.064 52.6715C114.586 53.8853 101.927 59.5127 93.7573 50.906C93.7573 50.906 90.0209 46.7682 95.0679 43.6235C95.0679 43.6235 98.6927 41.4166 107.978 43.9821C107.978 43.9821 110.766 44.9752 110.655 45.9958C110.488 47.0992 108.341 48.2027 105.218 48.1475C102.206 48.0647 99.9754 46.6303 100.422 46.8785C100.84 47.0165 97.1591 45.1131 96.0159 46.4096C94.9006 47.6234 95.1794 48.3406 96.2948 49.0854C99.0831 50.6853 110.041 50.106 113.304 46.4924C113.304 46.4924 114.614 45.0303 112.635 43.8441C110.683 42.7407 104.994 42.0511 102.792 41.9683C100.7 41.858 92.8651 41.9683 91.6939 39.9546C91.6939 39.9546 90.5786 38.5202 91.8055 34.603C93.0881 30.4652 102.206 28.8653 106.166 28.5342C106.166 28.5342 117.04 28.0929 119.076 30.2997C119.076 30.2997 119.355 30.7962 119.02 31.541M88.1806 55.8162C86.8701 56.7817 84.0817 56.3679 83.2731 55.2645C82.4923 54.299 82.2135 50.4922 82.3529 44.5062C82.5481 38.3822 82.6317 30.879 84.0259 29.6652C85.4201 28.4791 86.2566 29.5273 86.8143 30.3273C87.372 31.1548 88.0969 32.0652 88.2085 33.9686C88.3758 35.8995 88.8498 45.8303 88.8498 45.8303C88.8498 45.8303 89.4632 54.8783 88.2085 55.8162M90.969 23.5413C87.121 24.8378 84.4999 24.424 82.2692 23.4585C81.2933 25.1964 80.7078 25.7205 79.9828 25.8309C78.8674 25.9412 77.8915 24.1757 77.7521 23.624C77.529 23.2102 76.9992 22.4654 77.6406 20.7827C75.4656 18.8517 75.2983 16.2587 75.6887 14.5208C76.1906 12.4795 79.8712 4.81075 91.0247 3.90043C91.0247 3.90043 96.4899 3.51423 97.438 6.38312H97.6053C97.6053 6.38312 102.903 6.38312 102.792 11.0726C102.792 15.7622 96.9361 21.6103 90.969 23.624M95.9323 10.1899C92.4189 10.7416 87.0095 15.376 84.4163 19.2103C88.4037 19.9276 95.3746 19.6517 98.4976 13.4174C98.4976 13.4174 99.9754 9.50027 95.9323 10.1899ZM80.5126 13.2243C79.3972 15.0174 79.3415 16.0932 79.8712 16.8104C81.1818 14.8794 83.4961 11.845 86.9816 9.47269C84.3048 9.74854 82.0462 10.852 80.5126 13.2243ZM175.512 55.6231C172.947 61.8574 170.772 68.1745 169.517 77.6363C169.517 77.6363 169.239 79.4845 167.705 78.8777C166.171 78.326 163.662 75.8433 163.104 72.3399C162.546 67.7607 164.61 60.0368 168.82 51.1543C167.593 49.2233 166.729 46.3544 167.426 42.3269C167.426 42.3269 168.541 34.8789 176.07 28.148C176.07 28.148 176.962 27.4032 177.464 27.6515C178.078 27.9273 177.827 30.2997 177.325 31.5135C176.879 32.672 173.533 38.4098 173.533 38.4098C173.533 38.4098 171.441 42.327 172.027 45.3889C175.986 39.3753 184.993 27.1825 190.57 31.0445C194.111 33.5272 194.111 41.527 191.462 46.1613C189.371 49.8302 183.459 57.4162 175.568 55.6507M187.168 36.8926C185.104 39.0995 181.424 43.2924 178.524 48.975C181.591 48.644 184.575 46.9613 185.495 46.1062C186.973 44.8096 190.374 41.3063 189.845 36.6719C189.845 36.6719 189.51 34.2444 187.168 36.8926ZM62.2487 58.8782C52.3779 61.8574 43.0648 60.4782 37.9899 59.1541C37.8505 61.1954 37.6274 62.0505 37.2928 62.3816C36.9025 62.8229 33.6679 64.6436 31.8834 62.0505C31.1026 60.8092 30.7123 58.5748 30.4892 56.5335C19.0569 51.4026 13.759 43.8441 13.5917 43.5683C13.3128 43.2924 10.7196 40.6167 13.3128 37.3064C15.7387 34.3272 23.7692 31.3204 30.9632 30.1342C31.2421 24.0654 31.9113 19.3759 32.7757 17.307C33.8074 14.8243 35.1179 17.0311 36.289 18.6862C37.2371 19.9276 37.8226 25.2516 37.8784 29.4997C42.5628 29.279 45.407 29.6101 50.6212 30.6031C57.4806 31.7617 62.0536 35.2375 61.6911 39.1546C61.3565 43.0166 57.7873 44.6165 56.3932 44.7269C54.999 44.8372 52.7683 43.8166 52.7683 43.8166C51.2068 43.0993 52.6289 42.4373 54.4413 41.6649C56.4489 40.6994 56.0028 39.7339 56.0028 39.7339C55.2778 37.5271 46.3829 36.0651 37.5438 36.0651C37.5438 40.8925 37.739 48.8923 37.8784 53.5542C44.0686 54.7128 48.6973 54.4645 48.6973 54.4645C48.6973 54.4645 71.2831 53.8301 71.9244 39.5684C72.6215 25.2791 49.3386 11.5968 32.1901 7.29344C15.0695 2.85218 5.36598 5.99692 4.52946 6.4107C3.6093 6.85207 4.44581 7.01758 4.44581 7.01758C4.44581 7.01758 5.36598 7.15551 7.039 7.70722C8.71202 8.25893 7.3736 9.08649 7.3736 9.08649C4.44581 10.0796 1.18342 9.50027 0.542095 8.17617C-0.0992307 6.87966 0.96035 5.69348 2.21512 3.9556C3.38623 2.16254 4.72465 2.21772 4.72465 2.21772C25.9163 -5.09243 51.7924 8.01066 51.7924 8.01066C75.9954 20.0931 80.1222 34.2996 79.6761 39.8167C79.2857 45.251 77.1665 54.437 62.2487 58.9058M15.6829 39.1546C13.2849 40.258 14.958 42.0235 14.958 42.0235C19.4751 46.7958 24.9961 49.8026 30.294 51.6784C30.9075 43.4028 30.8517 40.4511 30.8517 36.2857C22.6539 36.8374 17.9136 38.1615 15.6829 39.1546Z" fill="white"/>
</svg>
