<svg width="181" height="36" viewBox="0 0 181 36" fill="none" xmlns="http://www.w3.org/2000/svg">
<path d="M2.29688 33.7109V26.2109C3.65625 27.3516 5.13281 28.2109 6.72656 28.7891C8.32031 29.3516 9.92969 29.6328 11.5547 29.6328C12.5078 29.6328 13.3359 29.5469 14.0391 29.375C14.7578 29.2031 15.3516 28.9688 15.8203 28.6719C16.3047 28.3594 16.6641 28 16.8984 27.5938C17.1328 27.1719 17.25 26.7188 17.25 26.2344C17.25 25.5781 17.0625 24.9922 16.6875 24.4766C16.3125 23.9609 15.7969 23.4844 15.1406 23.0469C14.5 22.6094 13.7344 22.1875 12.8438 21.7812C11.9531 21.375 10.9922 20.9609 9.96094 20.5391C7.33594 19.4453 5.375 18.1094 4.07812 16.5312C2.79688 14.9531 2.15625 13.0469 2.15625 10.8125C2.15625 9.0625 2.50781 7.5625 3.21094 6.3125C3.91406 5.04688 4.86719 4.00781 6.07031 3.19531C7.28906 2.38281 8.69531 1.78906 10.2891 1.41406C11.8828 1.02344 13.5703 0.828125 15.3516 0.828125C17.1016 0.828125 18.6484 0.9375 19.9922 1.15625C21.3516 1.35938 22.6016 1.67969 23.7422 2.11719V9.125C23.1797 8.73437 22.5625 8.39063 21.8906 8.09375C21.2344 7.79687 20.5547 7.55469 19.8516 7.36719C19.1484 7.16406 18.4453 7.01562 17.7422 6.92188C17.0547 6.82812 16.3984 6.78125 15.7734 6.78125C14.9141 6.78125 14.1328 6.86719 13.4297 7.03906C12.7266 7.19531 12.1328 7.42187 11.6484 7.71875C11.1641 8.01563 10.7891 8.375 10.5234 8.79688C10.2578 9.20312 10.125 9.66406 10.125 10.1797C10.125 10.7422 10.2734 11.25 10.5703 11.7031C10.8672 12.1406 11.2891 12.5625 11.8359 12.9688C12.3828 13.3594 13.0469 13.75 13.8281 14.1406C14.6094 14.5156 15.4922 14.9062 16.4766 15.3125C17.8203 15.875 19.0234 16.4766 20.0859 17.1172C21.1641 17.7422 22.0859 18.4531 22.8516 19.25C23.6172 20.0469 24.2031 20.9609 24.6094 21.9922C25.0156 23.0078 25.2188 24.1953 25.2188 25.5547C25.2188 27.4297 24.8594 29.0078 24.1406 30.2891C23.4375 31.5547 22.4766 32.5859 21.2578 33.3828C20.0391 34.1641 18.6172 34.7266 16.9922 35.0703C15.3828 35.4141 13.6797 35.5859 11.8828 35.5859C10.0391 35.5859 8.28125 35.4297 6.60938 35.1172C4.95312 34.8047 3.51562 34.3359 2.29688 33.7109ZM40.9125 34.7188C39.8188 35.2969 38.1703 35.5859 35.9672 35.5859C30.7484 35.5859 28.1391 32.875 28.1391 27.4531V16.4609H24.2484V11H28.1391V5.82031L35.5219 3.71094V11H40.9125V16.4609H35.5219V26.1641C35.5219 28.6641 36.5141 29.9141 38.4984 29.9141C39.2797 29.9141 40.0844 29.6875 40.9125 29.2344V34.7188ZM58.3641 17.6797C57.4734 17.1953 56.4344 16.9531 55.2469 16.9531C53.6375 16.9531 52.3797 17.5469 51.4734 18.7344C50.5672 19.9062 50.1141 21.5078 50.1141 23.5391V35H42.7078V11H50.1141V15.4531H50.2078C51.3797 12.2031 53.4891 10.5781 56.5359 10.5781C57.3172 10.5781 57.9266 10.6719 58.3641 10.8594V17.6797ZM80.8078 25.1094H65.1516C65.4016 28.5938 67.5969 30.3359 71.7375 30.3359C74.3781 30.3359 76.6984 29.7109 78.6984 28.4609V33.8047C76.4797 34.9922 73.5969 35.5859 70.05 35.5859C66.175 35.5859 63.1672 34.5156 61.0266 32.375C58.8859 30.2188 57.8156 27.2188 57.8156 23.375C57.8156 19.3906 58.9719 16.2344 61.2844 13.9062C63.5969 11.5781 66.4406 10.4141 69.8156 10.4141C73.3156 10.4141 76.0187 11.4531 77.925 13.5312C79.8469 15.6094 80.8078 18.4297 80.8078 21.9922V25.1094ZM73.9406 20.5625C73.9406 17.125 72.55 15.4062 69.7687 15.4062C68.5812 15.4062 67.55 15.8984 66.675 16.8828C65.8156 17.8672 65.2922 19.0938 65.1047 20.5625H73.9406ZM102.783 35H95.775V31.5547H95.6813C94.0719 34.2422 91.6891 35.5859 88.5328 35.5859C86.2047 35.5859 84.3688 34.9297 83.025 33.6172C81.6969 32.2891 81.0328 30.5234 81.0328 28.3203C81.0328 23.6641 83.7906 20.9766 89.3063 20.2578L95.8219 19.3906C95.8219 16.7656 94.4 15.4531 91.5563 15.4531C88.6969 15.4531 85.9781 16.3047 83.4 18.0078V12.4297C84.4313 11.8984 85.8375 11.4297 87.6188 11.0234C89.4156 10.6172 91.0484 10.4141 92.5172 10.4141C99.3609 10.4141 102.783 13.8281 102.783 20.6562V35ZM95.8219 25.25V23.6328L91.4625 24.1953C89.0563 24.5078 87.8531 25.5938 87.8531 27.4531C87.8531 28.2969 88.1422 28.9922 88.7203 29.5391C89.3141 30.0703 90.1109 30.3359 91.1109 30.3359C92.5016 30.3359 93.6344 29.8594 94.5094 28.9062C95.3844 27.9375 95.8219 26.7188 95.8219 25.25ZM144.352 35H136.969V21.3125C136.969 17.8281 135.688 16.0859 133.125 16.0859C131.906 16.0859 130.914 16.6094 130.148 17.6562C129.383 18.7031 129 20.0078 129 21.5703V35H121.594V21.1719C121.594 17.7812 120.336 16.0859 117.82 16.0859C116.555 16.0859 115.539 16.5859 114.773 17.5859C114.023 18.5859 113.648 19.9453 113.648 21.6641V35H106.242V11H113.648V14.75H113.742C114.508 13.4688 115.578 12.4297 116.953 11.6328C118.344 10.8203 119.859 10.4141 121.5 10.4141C124.891 10.4141 127.211 11.9062 128.461 14.8906C130.289 11.9062 132.977 10.4141 136.523 10.4141C141.742 10.4141 144.352 13.6328 144.352 20.0703V35Z" fill="white"/>
<path d="M179.289 34H170.312L164.523 23.0547C164.305 22.6484 164.078 21.8984 163.844 20.8047H163.75C163.641 21.3203 163.383 22.1016 162.977 23.1484L157.164 34H148.141L158.852 17.1953L149.055 0.390625H158.266L163.07 10.4688C163.445 11.2656 163.781 12.2109 164.078 13.3047H164.172C164.359 12.6484 164.711 11.6719 165.227 10.375L170.57 0.390625H179.008L168.93 17.0547L179.289 34Z" fill="white"/>
<path d="M179.289 34H170.312L164.523 23.0547C164.305 22.6484 164.078 21.8984 163.844 20.8047H163.75C163.641 21.3203 163.383 22.1016 162.977 23.1484L157.164 34H148.141L158.852 17.1953L149.055 0.390625H158.266L163.07 10.4688C163.445 11.2656 163.781 12.2109 164.078 13.3047H164.172C164.359 12.6484 164.711 11.6719 165.227 10.375L170.57 0.390625H179.008L168.93 17.0547L179.289 34Z" fill="#A29BFE"/>
<path d="M179.289 34V34.5H180.181L179.716 33.7392L179.289 34ZM170.312 34L169.871 34.2338L170.011 34.5H170.312V34ZM164.523 23.0547L164.965 22.8209L164.964 22.8176L164.523 23.0547ZM163.844 20.8047L164.333 20.6999L164.248 20.3047H163.844V20.8047ZM163.75 20.8047V20.3047H163.345L163.261 20.7009L163.75 20.8047ZM162.977 23.1484L163.417 23.3845L163.432 23.3577L163.443 23.3293L162.977 23.1484ZM157.164 34V34.5H157.463L157.605 34.2361L157.164 34ZM148.141 34L147.719 33.7313L147.229 34.5H148.141V34ZM158.852 17.1953L159.273 17.4641L159.437 17.2069L159.284 16.9435L158.852 17.1953ZM149.055 0.390625V-0.109375H148.184L148.623 0.642448L149.055 0.390625ZM158.266 0.390625L158.717 0.175455L158.581 -0.109375H158.266V0.390625ZM163.07 10.4688L163.523 10.2558L163.522 10.2536L163.07 10.4688ZM164.078 13.3047L163.596 13.4357L163.696 13.8047H164.078V13.3047ZM164.172 13.3047V13.8047H164.549L164.653 13.442L164.172 13.3047ZM165.227 10.375L164.786 10.1391L164.772 10.164L164.762 10.1903L165.227 10.375ZM170.57 0.390625V-0.109375H170.271L170.129 0.154687L170.57 0.390625ZM179.008 0.390625L179.436 0.649376L179.895 -0.109375H179.008V0.390625ZM168.93 17.0547L168.502 16.7959L168.345 17.0561L168.503 17.3155L168.93 17.0547ZM179.289 33.5H170.312V34.5H179.289V33.5ZM170.754 33.7662L164.965 22.8209L164.081 23.2885L169.871 34.2338L170.754 33.7662ZM164.964 22.8176C164.782 22.4807 164.567 21.7945 164.333 20.6999L163.355 20.9095C163.589 22.0024 163.827 22.8161 164.083 23.2917L164.964 22.8176ZM163.844 20.3047H163.75V21.3047H163.844V20.3047ZM163.261 20.7009C163.16 21.1746 162.915 21.9243 162.51 22.9676L163.443 23.3293C163.85 22.2789 164.121 21.466 164.239 20.9084L163.261 20.7009ZM162.536 22.9124L156.723 33.7639L157.605 34.2361L163.417 23.3845L162.536 22.9124ZM157.164 33.5H148.141V34.5H157.164V33.5ZM148.562 34.2687L159.273 17.4641L158.43 16.9266L147.719 33.7313L148.562 34.2687ZM159.284 16.9435L149.487 0.138802L148.623 0.642448L158.42 17.4471L159.284 16.9435ZM149.055 0.890625H158.266V-0.109375H149.055V0.890625ZM157.814 0.605795L162.619 10.6839L163.522 10.2536L158.717 0.175455L157.814 0.605795ZM162.618 10.6816C162.978 11.4459 163.304 12.3625 163.596 13.4357L164.561 13.1737C164.258 12.0594 163.913 11.0853 163.523 10.2559L162.618 10.6816ZM164.078 13.8047H164.172V12.8047H164.078V13.8047ZM164.653 13.442C164.833 12.811 165.177 11.8536 165.691 10.5597L164.762 10.1903C164.245 11.4902 163.886 12.4859 163.691 13.1673L164.653 13.442ZM165.667 10.6109L171.011 0.626563L170.129 0.154687L164.786 10.1391L165.667 10.6109ZM170.57 0.890625H179.008V-0.109375H170.57V0.890625ZM178.58 0.131874L168.502 16.7959L169.358 17.3134L179.436 0.649376L178.58 0.131874ZM168.503 17.3155L178.862 34.2608L179.716 33.7392L169.356 16.7939L168.503 17.3155Z" fill="white"/>
</svg>
