<svg width="151" height="30" viewBox="0 0 151 30" fill="none" xmlns="http://www.w3.org/2000/svg">
<path d="M1.91406 27.9258V21.6758C3.04688 22.6263 4.27734 23.3424 5.60547 23.8242C6.93359 24.293 8.27474 24.5273 9.62891 24.5273C10.4232 24.5273 11.1133 24.4557 11.6992 24.3125C12.2982 24.1693 12.793 23.974 13.1836 23.7266C13.5872 23.4661 13.8867 23.1667 14.082 22.8281C14.2773 22.4766 14.375 22.099 14.375 21.6953C14.375 21.1484 14.2188 20.6602 13.9062 20.2305C13.5938 19.8008 13.1641 19.4036 12.6172 19.0391C12.0833 18.6745 11.4453 18.3229 10.7031 17.9844C9.96094 17.6458 9.16016 17.3008 8.30078 16.9492C6.11328 16.0378 4.47917 14.9245 3.39844 13.6094C2.33073 12.2943 1.79688 10.7057 1.79688 8.84375C1.79688 7.38542 2.08984 6.13542 2.67578 5.09375C3.26172 4.03906 4.05599 3.17318 5.05859 2.49609C6.07422 1.81901 7.24609 1.32422 8.57422 1.01172C9.90234 0.686198 11.3086 0.523438 12.793 0.523438C14.2513 0.523438 15.5404 0.614583 16.6602 0.796875C17.793 0.966146 18.8346 1.23307 19.7852 1.59766V7.4375C19.3164 7.11198 18.8021 6.82552 18.2422 6.57812C17.6953 6.33073 17.1289 6.12891 16.543 5.97266C15.957 5.80339 15.3711 5.67969 14.7852 5.60156C14.2122 5.52344 13.6654 5.48438 13.1445 5.48438C12.4284 5.48438 11.7773 5.55599 11.1914 5.69922C10.6055 5.82943 10.1107 6.01823 9.70703 6.26562C9.30339 6.51302 8.99089 6.8125 8.76953 7.16406C8.54818 7.5026 8.4375 7.88672 8.4375 8.31641C8.4375 8.78516 8.5612 9.20833 8.80859 9.58594C9.05599 9.95052 9.40755 10.3021 9.86328 10.6406C10.319 10.9661 10.8724 11.2917 11.5234 11.6172C12.1745 11.9297 12.9102 12.2552 13.7305 12.5938C14.8503 13.0625 15.8529 13.5638 16.7383 14.0977C17.6367 14.6185 18.4049 15.2109 19.043 15.875C19.681 16.5391 20.1693 17.3008 20.5078 18.1602C20.8464 19.0065 21.0156 19.9961 21.0156 21.1289C21.0156 22.6914 20.7161 24.0065 20.1172 25.0742C19.5312 26.1289 18.7305 26.9883 17.7148 27.6523C16.6992 28.3034 15.5143 28.7721 14.1602 29.0586C12.819 29.3451 11.3997 29.4883 9.90234 29.4883C8.36589 29.4883 6.90104 29.3581 5.50781 29.0977C4.1276 28.8372 2.92969 28.4466 1.91406 27.9258ZM34.0938 28.7656C33.1823 29.2474 31.8086 29.4883 29.9727 29.4883C25.6237 29.4883 23.4492 27.2292 23.4492 22.7109V13.5508H20.207V9H23.4492V4.68359L29.6016 2.92578V9H34.0938V13.5508H29.6016V21.6367C29.6016 23.7201 30.4284 24.7617 32.082 24.7617C32.7331 24.7617 33.4036 24.5729 34.0938 24.1953V28.7656ZM48.6367 14.5664C47.8945 14.1628 47.0286 13.9609 46.0391 13.9609C44.6979 13.9609 43.6497 14.4557 42.8945 15.4453C42.1393 16.4219 41.7617 17.7565 41.7617 19.4492V29H35.5898V9H41.7617V12.7109H41.8398C42.8164 10.0026 44.5742 8.64844 47.1133 8.64844C47.7643 8.64844 48.2721 8.72656 48.6367 8.88281V14.5664ZM67.3398 20.7578H54.293C54.5013 23.6615 56.3307 25.1133 59.7812 25.1133C61.9818 25.1133 63.9154 24.5924 65.582 23.5508V28.0039C63.7331 28.9935 61.3307 29.4883 58.375 29.4883C55.1458 29.4883 52.6393 28.5964 50.8555 26.8125C49.0716 25.0156 48.1797 22.5156 48.1797 19.3125C48.1797 15.9922 49.1432 13.362 51.0703 11.4219C52.9974 9.48177 55.3672 8.51172 58.1797 8.51172C61.0964 8.51172 63.349 9.3776 64.9375 11.1094C66.5391 12.8411 67.3398 15.1914 67.3398 18.1602V20.7578ZM61.6172 16.9688C61.6172 14.1042 60.4583 12.6719 58.1406 12.6719C57.151 12.6719 56.2917 13.082 55.5625 13.9023C54.8464 14.7227 54.4102 15.7448 54.2539 16.9688H61.6172ZM85.6523 29H79.8125V26.1289H79.7344C78.3932 28.3685 76.4076 29.4883 73.7773 29.4883C71.8372 29.4883 70.3073 28.9414 69.1875 27.8477C68.0807 26.7409 67.5273 25.2695 67.5273 23.4336C67.5273 19.5534 69.8255 17.3138 74.4219 16.7148L79.8516 15.9922C79.8516 13.8047 78.6667 12.7109 76.2969 12.7109C73.9141 12.7109 71.6484 13.4206 69.5 14.8398V10.1914C70.3594 9.7487 71.5312 9.35807 73.0156 9.01953C74.513 8.68099 75.8737 8.51172 77.0977 8.51172C82.8008 8.51172 85.6523 11.3568 85.6523 17.0469V29ZM79.8516 20.875V19.5273L76.2188 19.9961C74.2135 20.2565 73.2109 21.1615 73.2109 22.7109C73.2109 23.4141 73.4518 23.9935 73.9336 24.4492C74.4284 24.8919 75.0924 25.1133 75.9258 25.1133C77.0846 25.1133 78.0286 24.7161 78.7578 23.9219C79.487 23.1146 79.8516 22.099 79.8516 20.875ZM120.293 29H114.141V17.5938C114.141 14.6901 113.073 13.2383 110.938 13.2383C109.922 13.2383 109.095 13.6745 108.457 14.5469C107.819 15.4193 107.5 16.5065 107.5 17.8086V29H101.328V17.4766C101.328 14.651 100.28 13.2383 98.1836 13.2383C97.1289 13.2383 96.2826 13.6549 95.6445 14.4883C95.0195 15.3216 94.707 16.4544 94.707 17.8867V29H88.5352V9H94.707V12.125H94.7852C95.4232 11.0573 96.3151 10.1914 97.4609 9.52734C98.6198 8.85026 99.8828 8.51172 101.25 8.51172C104.076 8.51172 106.009 9.75521 107.051 12.2422C108.574 9.75521 110.814 8.51172 113.77 8.51172C118.118 8.51172 120.293 11.194 120.293 16.5586V29Z" fill="white"/>
<path d="M150.815 29H141.338L122.185 0H130.919L150.815 29Z" fill="url(#paint0_linear_85_42)"/>
<path d="M122.185 29H131.662L150.815 0H142.081L122.185 29Z" fill="url(#paint1_linear_85_42)"/>
<defs>
<linearGradient id="paint0_linear_85_42" x1="126.528" y1="15" x2="158.513" y2="15" gradientUnits="userSpaceOnUse">
<stop stop-color="#A29BFE"/>
<stop offset="1" stop-color="white"/>
</linearGradient>
<linearGradient id="paint1_linear_85_42" x1="126.528" y1="15" x2="158.513" y2="15" gradientUnits="userSpaceOnUse">
<stop stop-color="#A29BFE"/>
<stop offset="1" stop-color="white"/>
</linearGradient>
</defs>
</svg>
