<svg width="119" height="93" viewBox="0 0 119 93" fill="none" xmlns="http://www.w3.org/2000/svg">
<path d="M2.96448 66.5447L4.59711 64.0799L7.42808 64.8544L5.58097 62.6042L7.16642 60.171L4.42449 61.2435L2.51967 58.9987L2.6819 61.9133L0.0234375 62.9181L2.79706 63.6454L2.96448 66.5447ZM2.57714 55.6861L4.64417 53.5565L7.28679 54.8542L5.90009 52.3057L7.91475 50.2125L5.02608 50.7463L3.58712 48.1717L3.2051 51.0656L0.379452 51.5522L2.96448 52.7976L2.57714 55.6861ZM4.28307 44.9326L6.7112 43.258L9.06603 45.0163L8.17641 42.2429L10.5783 40.5841L7.62684 40.5474L6.7112 37.753L5.7692 40.5369L2.90667 40.4689L5.20935 42.1696L4.28307 44.9326ZM16.4654 24.8121L17.9829 27.3291L18.1923 24.4511L21.0337 23.776L18.3283 22.6509L18.522 19.7257L16.6226 21.9445L13.9851 20.8038L15.4764 23.2528L13.5821 25.4559L16.4654 24.8121ZM51.5365 7.5956L53.7132 5.66998L56.2093 7.17172L55.0319 4.46112L57.2089 2.49353L54.3045 2.76039L53.2057 0.122976L52.5621 2.91221L49.6735 3.2L52.1958 4.71746L51.5365 7.5956ZM9.90859 87.0471L10.4946 84.1482L13.4093 83.7975L10.8609 82.4056L11.4103 79.5641L9.26987 81.5733L6.66923 80.2129L7.92515 82.8507L5.82667 84.7918L8.66296 84.4253L9.90859 87.0471ZM23.7548 17.3237L24.77 20.0867L25.5341 17.2818L28.4435 17.1823L25.9945 15.5601L26.7532 12.7081L24.4665 14.5136L22.0906 12.9175L23.0745 15.6073L20.8086 17.4022L23.7548 17.3237ZM32.3578 11.3268L32.8131 14.2311L34.1162 11.6251L36.9891 12.0857L34.8854 10.0187L36.1728 7.37072L33.5615 8.71047L31.552 6.69061L32.023 9.50597L29.4433 10.856L32.3578 11.3268ZM41.8346 10.0185L43.5929 7.70557L46.34 8.69983L44.6707 6.2717L46.4343 3.92739L43.6242 4.72798L42.0387 2.36796L41.9548 5.23038L39.1604 6.04137L41.9339 7.07228L41.8346 10.0185ZM4.72788 74.3418L5.43967 77.1569L6.57003 74.4099L9.51616 74.6245L7.26609 72.7769L8.35447 70.0873L5.87408 71.6571L3.57672 69.8152L4.2988 72.6513L1.86558 74.1481L4.72788 74.3418ZM8.01419 34.7546L10.7197 33.5562L12.682 35.7489L12.3471 32.8603L15.0001 31.6829L12.1273 31.0967L11.761 28.1716L10.3009 30.7096L7.51179 30.1025L9.43753 32.2271L8.01419 34.7546ZM92.2956 16.9574L93.0493 19.7622L94.1009 17.0202L97.0313 17.0988L94.7552 15.2725L95.7912 12.609L93.3896 14.1842L91.1289 12.3631L91.8716 15.2202L89.3963 16.8268L92.2956 16.9574ZM96.8847 23.3625L99.7159 24.0271L99.9094 26.9314L101.448 24.4249L104.321 25.079L102.432 22.8497L103.955 20.4321L101.307 21.5153L99.4173 19.3071L99.611 22.2532L96.8847 23.3625ZM83.6822 11.3791L84.9539 13.98L85.446 11.0966L88.3499 10.6309L85.7701 9.265L86.2674 6.45496L84.2213 8.4643L81.6415 7.11426L82.9131 9.7778L80.8145 11.8239L83.6822 11.3791ZM105.65 32.405L105.3 35.2778L107.298 33.1166L109.983 34.3045L108.544 31.7561L110.506 29.6786L107.696 30.249L106.262 27.6953L105.896 30.6257L103.018 31.1857L105.65 32.405ZM71.4057 8.52708L74.1581 7.54866L75.901 9.88776L75.8225 6.93134L78.5959 5.93176L75.7961 5.084L75.744 2.2217L74.1166 4.5816L71.3376 3.73916L73.101 6.12012L71.4057 8.52708ZM115.603 61.3796L115.807 58.4703L113.877 60.7362L111.15 59.6215L112.714 62.06L110.846 64.2996L113.693 63.567L115.3 66.0318L115.488 63.1171L118.261 62.4318L115.603 61.3796ZM113.651 73.8129L116.514 73.6768L114.112 72.1228L114.839 69.3181L112.526 71.165L110.061 69.5534L111.139 72.2693L108.863 74.0905L111.809 73.9177L112.919 76.6388L113.651 73.8129ZM107.989 83.6667L108.544 86.5657L109.821 83.9336L112.652 84.3417L110.574 82.3687L111.846 79.7523L109.219 81.1181L107.089 79.067L107.628 81.9085L105.074 83.2794L107.989 83.6667ZM36.068 65.3724C35.843 65.1892 33.08 67.9995 31.2745 69.9614C30.6363 70.6419 30.2227 71.2857 29.9769 71.5891C29.9769 71.5891 29.1814 72.9025 28.7575 73.4574C28.3284 74.0121 27.2661 75.5767 26.7952 76.2571C26.6329 76.4819 26.2143 77.4709 25.3928 78.4967C24.9846 79.0093 24.5713 79.6793 23.7706 80.7051C22.7031 82.076 21.8971 83.201 22.0803 83.3529C22.185 83.4259 23.7548 81.5265 25.4397 79.4857C26.141 78.6327 26.8998 77.7589 27.5435 76.9266C27.8573 76.524 28.5796 75.8488 28.8152 75.5034C29.2284 74.891 29.6787 74.4254 29.8565 74.2788C30.7932 73.5149 31.3217 73.4575 31.6252 73.0232C31.7665 72.8087 33.624 70.0142 34.2992 68.8786C34.9165 67.8058 36.4393 65.7072 36.068 65.3724ZM114.63 47.6641L113.175 50.2336L110.291 49.6684L112.296 51.7877L110.899 54.3151L113.547 53.0592L115.587 55.168L115.226 52.2585L117.822 51.0654L114.996 50.5419L114.63 47.6641ZM107.539 40.0607L109.91 41.7404L109.01 44.5138L111.365 42.7608L113.798 44.451L112.866 41.6671L115.184 39.9926L112.333 40.0188L111.406 37.2557L110.48 40.0554L107.539 40.0607ZM61.5157 7.10385L64.0275 5.62292L66.1834 7.55387L65.5504 4.68613L68.0565 3.18439L65.1526 2.88087L64.5663 0.0812378L63.4152 2.70292L60.5268 2.42554L62.7138 4.40366L61.5157 7.10385ZM61.8924 58.1193C62.1646 58.9203 63.1747 63.6402 63.4675 64.6187C63.7708 65.5922 64.0745 65.6446 64.2422 66.0264C64.8279 67.497 65.6704 67.5545 66.1049 67.6747C67.3191 68.0465 67.4182 69.6736 68.1926 71.1284C68.9149 72.4892 69.5954 73.7135 70.2338 75.1995C70.872 76.6857 74.1375 84.7342 74.6975 85.9585C74.8856 86.4032 76.4398 86.4032 76.2722 85.9585C75.8801 85.0741 74.985 82.8505 74.4303 80.6316C74.0799 79.1926 75.4249 80.2128 74.5663 77.9051C74.1686 76.8481 73.4153 75.7963 72.9917 75.367C72.5571 74.9434 72.1383 73.117 71.8087 72.3004C71.4583 71.5049 71.6358 71.4633 70.9141 69.5428C70.3747 68.1403 71.8873 68.6113 71.0397 66.45C70.4902 65.0426 67.6958 59.9563 67.3713 59.4329C67.2143 59.1449 66.6755 58.2658 66.0107 57.2245C65.3828 56.2356 64.8649 55.1785 64.5664 54.7179C63.9856 53.7866 62.9181 51.7456 62.3163 50.8979C61.72 50.0449 60.9766 48.1715 60.668 48.4857C60.3647 48.7629 61.5679 51.573 62.0599 53.3626C62.578 55.1472 62.2012 55.8746 61.8926 56.3819C61.6045 56.8846 61.6045 57.2195 61.8924 58.1193ZM80.851 72.6878C81.673 74.0538 81.8927 73.7816 82.2329 73.7974C83.0072 73.8185 84.7394 75.6814 85.0848 76.1889C85.4144 76.7017 88.2033 79.4804 88.9204 80.1607C89.2343 80.4588 91.4428 84.0276 91.7251 83.7716C92.0236 83.5149 90.8777 81.7831 90.7049 81.3955C90.5481 81.0188 89.9095 80.4588 89.6005 79.6479C89.3128 78.8524 87.9995 76.8482 87.5706 76.2153C87.1463 75.5767 86.4556 74.1636 85.702 73.269C85.0062 72.4838 85.561 72.2694 84.8442 71.5789C84.4096 71.1706 83.0597 69.9719 82.7561 69.7209C82.4684 69.4593 81.3642 68.4809 80.731 67.9315C80.1028 67.3977 78.5959 66.3509 78.6483 65.6813C78.669 64.9954 78.3393 63.6929 77.8318 63.2584C77.4653 62.9445 76.3876 61.2071 75.1528 60.2023C74.5299 59.679 73.2007 58.2976 72.1752 57.0993C71.2174 55.9584 70.4954 54.917 70.2755 55.0636C69.9512 55.273 71.3905 57.2823 71.5366 57.5233C71.6884 57.7533 73.3525 60.6313 73.5094 61.3849C73.6824 62.1491 76.7854 67.3714 77.4499 68.9935C77.8317 69.9407 79.9563 71.2071 80.851 72.6878ZM94.4044 77.7379C94.5089 77.6122 94.2107 77.2249 94.0487 76.932C93.8706 76.6389 92.8136 75.4667 92.6146 75.1371C92.4421 74.8284 91.0712 72.8765 90.5893 72.2381C89.7315 71.139 90.5164 70.736 90.0661 70.056C89.883 69.7576 88.7842 68.4336 87.5072 67.1255C86.8479 66.4712 86.1153 65.838 85.4928 65.278C84.4827 64.3781 83.7189 63.7083 83.5934 63.8183C83.4153 63.9961 84.0118 64.713 84.2682 65.0426C84.5246 65.3564 84.9275 65.9372 85.4614 66.5706C86.3247 67.6018 85.524 68.3811 86.3506 69.2027C86.4867 69.3388 88.7684 71.8923 89.3286 72.3636C90.1604 73.1064 93.1328 76.6335 93.342 76.827C93.6928 77.1568 94.3048 77.8635 94.4044 77.7379ZM47.3604 60.9976C47.528 60.6417 48.046 59.5429 48.0198 59.1034C48.0198 59.0249 47.8262 58.8888 47.6639 59.0508C46.8999 59.8046 45.3459 62.4941 44.7546 62.7978C43.4253 63.4412 42.8444 65.0009 42.4467 65.6182C42.1641 66.0735 41.7979 66.8113 41.1646 67.7379C40.61 68.5383 39.9768 69.7365 39.7413 70.15C39.5111 70.5842 39.4273 70.9819 39.8563 70.9819C40.2854 70.9819 39.9507 71.6833 39.4273 72.4525C39.1291 72.9025 38.3913 75.0585 38.1767 75.6445C37.8941 76.3666 37.9359 77.2876 37.8365 77.5963C37.737 77.8843 36.3295 80.8828 35.9631 81.5473C35.7329 81.9661 35.8009 82.1334 35.7119 82.3637C35.5811 82.6514 35.7434 82.7353 35.9631 82.5259C36.2301 82.2589 37.737 79.9719 38.1975 79.7002C38.6476 79.4175 39.0609 78.9991 39.1289 78.0151C39.1969 77.0313 39.8355 76.7645 40.3117 76.1889C40.8089 75.6184 41.4628 74.8545 41.8134 74.0538C42.1431 73.2272 42.5671 73.8549 43.3311 72.6253C44.0949 71.3852 45.8115 68.3292 46.2039 67.7379C46.5806 67.1462 46.3034 66.2933 46.2562 65.587C46.2353 65.2156 46.2875 64.2996 46.5075 63.3264C46.7274 62.4577 47.1302 61.5732 47.3604 60.9976ZM53.9331 37.6485C54.5662 37.6485 55.4925 36.4919 55.9947 35.4873C56.513 34.3988 56.7746 33.7866 57.4234 32.3946C57.4495 32.3213 57.3867 32.3213 57.3186 32.3213C56.581 32.3213 55.7697 33.0749 55.2518 33.6818C54.6395 34.4355 53.6348 35.8536 53.483 36.874C53.3732 37.4233 53.6138 37.6485 53.9331 37.6485ZM70.2807 38.6269C71.003 38.9932 71.8978 37.4024 72.6775 35.9529C73.4518 34.4929 74.0694 32.6822 73.4153 32.4572C72.6775 32.159 71.7407 33.5824 70.961 35.0371C70.1915 36.4919 69.6059 38.3026 70.2807 38.6269ZM42.3526 37.6485C43.0013 37.6485 43.9068 36.4919 44.43 35.4873C44.9429 34.3988 45.2151 33.7866 45.843 32.3946C45.8744 32.3213 45.8115 32.3213 45.7539 32.3213C45.0109 32.3213 44.1997 33.0749 43.687 33.6818C43.0747 34.4355 42.0596 35.8536 41.9078 36.874C41.798 37.4233 42.0596 37.6485 42.3526 37.6485ZM35.2568 24.4979C40.2803 24.7335 43.2369 27.1981 43.2369 29.8409C43.2318 34.5662 35.7382 35.372 35.7382 35.372C34.4351 41.9185 29.2441 44.4145 25.6491 44.378C20.8243 44.3413 20.8975 40.4324 21.06 39.93C21.2639 39.349 21.5621 38.8206 22.1693 38.8206C22.7711 38.8206 23.2735 39.3124 23.2735 39.93C23.2735 40.3016 23.0902 40.6521 22.7711 40.8352C22.1379 41.2278 22.2582 41.7196 22.2582 41.7196C22.2582 43.7971 24.9426 43.9592 25.6492 43.9592C32.834 43.9592 32.0071 32.1223 38.3442 28.0983C38.6321 27.9047 38.8571 28.0983 38.6792 28.2971C36.7012 30.7775 35.958 34.7755 35.958 34.7755C39.0141 34.7755 41.034 31.866 41.034 29.8409C41.034 26.3715 37.9099 24.9323 35.2569 24.9323C27.8574 24.9323 24.6445 30.1025 24.6445 32.9178C24.6445 35.7383 26.4237 36.7587 27.7111 36.7587C29.506 36.7587 30.0659 35.5605 29.8461 34.9744C29.4902 34.0534 29.9821 33.2842 30.537 33.2842C30.7566 33.2842 31.4946 33.2475 31.4946 34.5454C31.4946 35.796 29.7205 37.0572 27.7581 37.0572C25.822 37.0572 22.991 36.0106 22.991 32.9179C22.9908 26.6488 30.7041 24.2677 35.2568 24.4979ZM47.7163 32.159C46.9157 33.9697 46.3244 35.2674 45.5864 36.9786C45.5237 37.1409 45.4661 37.4233 45.6181 37.528C45.7539 37.5908 45.9111 37.5908 45.9999 37.528C46.9471 37.0728 47.7791 35.9685 48.4333 34.7126L49.6001 32.1381H51.2432L50.7931 33.1113C50.7563 33.1637 50.7563 33.195 50.7931 33.1637C51.306 32.7765 51.8449 32.1956 52.5044 31.8345C52.7607 31.7141 53.373 31.7141 53.31 32.138C53.2787 32.5147 52.9909 32.8026 52.8288 33.1637C52.7346 33.3939 52.6351 33.6817 52.6666 33.8387C52.7346 34.0112 52.9229 34.1055 53.1794 33.9119C53.4358 33.7497 53.6347 33.6188 53.8702 33.4252C54.2783 33.0275 54.7964 32.656 55.3772 32.3474C56.5442 31.8083 58.1298 31.4576 59.2914 32.1956C58.4802 34.0113 57.8681 35.3615 57.0935 37.0726C56.9522 37.3656 57.0674 37.4599 57.1615 37.5279C57.2609 37.5906 57.4493 37.622 57.711 37.4809C58.3492 37.2141 59.4797 35.9529 59.9297 34.9743C60.3589 34.0638 60.7461 33.1637 61.2013 32.1381H62.8918L62.4205 33.1324L62.4885 33.1638C62.9388 32.7503 64.1161 31.8085 64.9847 32.0073C65.4663 32.1068 65.7016 32.6822 65.6652 33.1114C66.2144 32.7086 66.7797 32.2271 67.5961 32.0283C68.7629 31.7405 69.2182 32.5515 68.8572 33.3314C68.402 34.3989 67.5018 36.492 66.9838 37.5701C66.921 37.68 66.921 37.9206 66.9838 37.973C67.1145 38.0777 67.345 37.973 67.4443 37.9206C68.0251 37.4235 68.3446 37.1043 68.7942 36.4658C68.9198 35.3355 69.532 34.2943 70.38 33.4256C71.2799 32.4261 72.7032 31.6465 74.0692 32.1069C74.5453 32.2639 74.8697 32.7505 75.0006 33.232C75.0634 33.4884 75.1262 33.6192 75.1262 33.9123C75.8431 34.4357 76.7798 33.5826 77.162 32.9443C77.2667 32.6825 77.3974 32.3947 77.4601 32.1958C77.8684 32.2271 78.6687 32.1958 79.145 32.1958L77.0361 37.0154C76.9005 37.2979 76.8688 37.4601 76.8688 37.68C76.8688 37.8579 77.0625 37.8893 77.2665 37.8579C77.8473 37.7532 78.7943 36.6125 79.2704 35.6549C79.8043 34.4565 80.333 33.457 80.8564 32.2639H82.5622C81.8818 33.8756 81.1123 35.5921 80.5579 36.848C80.4272 37.1043 80.2756 37.366 80.359 37.7218C80.427 37.8893 80.6522 37.8579 80.7932 37.7951C81.5311 37.366 82.8028 35.9532 83.2425 35.0792C83.7028 34.043 84.043 33.2686 84.5244 32.2638H86.2776L85.8589 33.2686C86.5129 32.7505 87.214 32.1958 88.0568 32.0597C88.4439 32.0075 88.9255 32.0283 89.1506 32.426C89.4123 32.8761 89.2551 33.3522 89.0615 33.7866C88.58 34.8855 88.0199 36.0786 87.5387 37.141C87.4497 37.4025 87.4236 37.6486 87.5963 37.7531C87.8631 37.9206 89.0874 37.1723 89.7102 35.8118C90.2494 34.6186 90.6158 33.9121 91.0971 32.7505H90.1971L90.4483 32.2271H91.3534L92.6459 29.4171H94.389L93.1329 32.2271H94.4465L94.2003 32.7505H92.9076C92.1649 34.3256 91.5419 35.6547 90.8931 37.141C90.6421 37.6486 90.3804 38.5015 90.5164 39.0195C90.6161 39.3075 90.9717 39.3806 91.296 39.2708C92.2903 38.9254 92.9707 38.0778 93.5514 37.1723C93.583 37.0729 94.1112 37.141 94.0694 37.2142C93.3838 38.5642 91.9032 39.9301 90.4849 39.8934C90.0613 39.8934 89.6005 39.6318 89.3494 39.2707C89.2294 39.0822 89.1509 38.9253 89.0877 38.7003C88.9987 38.334 89.0253 37.9205 89.0877 37.5281C88.3186 38.1143 87.5808 38.8207 86.6074 39.0194C86.1834 39.0822 85.6394 38.9253 85.54 38.4701C85.4772 38.1143 85.5084 37.7216 85.6396 37.4025C86.2517 36.0786 86.7958 34.8855 87.3766 33.4883C87.4239 33.4255 87.3766 33.1953 87.3086 33.1639C87.2142 33.075 86.9267 33.075 86.6703 33.2686C85.4772 34.1686 84.8649 35.3355 84.3522 36.5285C83.9858 37.3292 83.5937 38.1403 83.2114 38.9253H81.4951C81.694 38.444 81.9817 37.795 82.2066 37.2718C82.2066 37.2404 82.1754 37.2404 82.1754 37.2718C81.4691 37.973 80.5583 38.7788 79.6637 39.0195C79.3024 39.1137 78.9413 38.9934 78.7582 38.6532C78.554 38.3341 78.4966 37.8579 78.6691 37.4236C78.6691 37.4026 78.6536 37.4026 78.6172 37.4236C77.9786 38.0778 77.356 38.6532 76.4975 38.9516C75.5191 39.2498 74.6401 38.5643 75.2574 37.141C75.4251 36.7588 75.9115 35.6862 76.4454 34.3989C76.0006 34.582 75.4563 34.582 75.1634 34.493C75.1266 34.493 75.1266 34.493 75.1266 34.5245C74.7496 36.3298 73.6771 37.973 72.0288 38.7579C71.2229 39.1503 70.3071 39.2498 69.5065 38.7003C69.1194 38.444 68.8889 37.816 68.8577 37.2716C68.0256 38.1142 67.0782 39.1763 65.7911 38.9933C65.5974 38.9514 65.4354 38.7787 65.3359 38.6009C65.0428 38.1143 65.2152 37.5909 65.3985 37.1722C66.0162 35.8849 66.5237 34.6813 67.1412 33.2318C67.2404 33.0276 66.9631 32.8811 66.7643 32.9755C66.1522 33.2686 65.7752 33.5616 65.4354 34.0848C65.252 34.3674 65.0689 34.6918 64.9224 35.0004C64.3518 36.2407 63.7555 37.528 63.2373 38.7786H61.4844C62.2694 37.0152 63.0072 35.2987 63.7815 33.5562C63.8548 33.394 63.8132 33.1638 63.7189 33.1114C63.567 33.0277 63.2899 33.1638 63.1117 33.2686C62.693 33.5564 62.3215 33.9384 62.0443 34.4356C61.7513 34.9169 61.4845 35.3983 61.2803 35.9217L59.9723 38.7788H58.2609C58.4284 38.4021 58.7475 37.6486 58.9411 37.2718C58.9411 37.2404 58.9098 37.2143 58.9098 37.2404C57.9731 38.0149 56.7747 39.0195 55.9009 38.8521C55.6077 38.8207 55.3566 38.5643 55.2886 38.3028C55.226 37.9731 55.252 37.68 55.3201 37.4026C55.3201 37.366 55.2886 37.366 55.2521 37.4026C54.5036 38.1144 53.8339 38.7004 52.8919 38.9254C52.3529 39.0458 51.8454 38.7004 51.6727 38.3028C51.4319 37.8579 51.3745 37.1411 51.7616 36.3299C51.9918 35.8119 52.243 35.2676 52.5622 34.8176C52.3738 34.917 51.9918 34.9484 51.7301 34.917C51.5104 34.8857 51.2749 34.713 51.1598 34.5455C51.0238 34.399 50.9923 34.1059 50.9923 33.9124C51.0238 33.8757 50.9243 33.8757 50.8562 33.9124C50.3436 34.3259 50.1133 34.8177 49.8569 35.362L48.3706 38.7267H46.623L47.2667 37.298C47.2981 37.2719 47.2667 37.2405 47.2352 37.2719C46.3247 38.0778 45.2363 38.9935 44.3571 38.8208C44.1058 38.7789 43.8389 38.5278 43.7762 38.2767C43.7135 37.9731 43.7395 37.6487 43.7762 37.366H43.7135C43.0016 38.0778 42.3215 38.6532 41.3953 38.8521C40.8668 39.0195 40.3905 38.7004 40.1863 38.2503C39.93 37.5909 40.0242 36.9213 40.2544 36.2984C40.9243 34.5454 42.1645 33.2948 43.8389 32.3477C44.9011 31.7405 46.5546 31.5572 47.7163 32.159ZM10.144 59.234C10.144 66.6282 12.1064 74.959 15.6072 81.7931C21.9337 75.8905 38.5327 57.1567 40.4375 54.9799C43.3313 51.6674 44.5819 53.7762 46.1361 51.9238C46.9681 50.9086 47.4547 50.5214 47.821 50.3173C48.4176 49.9615 49.0979 49.1139 49.438 48.8625C49.7781 48.6061 50.5474 47.5858 51.144 47.0728C51.7459 46.5654 52.9231 45.7961 54.1216 44.7808C55.3147 43.7552 57.3451 41.3795 59.5585 41.3795C62.1906 41.3795 63.2898 43.1639 63.5251 43.3785C63.7134 43.5827 65.3358 45.0163 65.5973 45.2885C65.885 45.613 67.6224 46.9839 68.5644 46.9839C69.4958 46.9839 70.1868 48.0043 70.689 48.512C71.8036 49.5271 76.4084 54.3675 77.9209 55.3932C78.596 55.8589 79.2343 55.7753 79.7365 56.1678C80.2549 56.5496 80.5112 56.7959 80.804 56.8847C81.0867 56.9632 82.0756 56.7118 83.227 58.1511C83.7609 58.5173 83.9022 58.5803 83.9022 58.5803C83.9022 58.5803 85.4666 59.9982 86.0268 60.9977C86.5343 61.8612 98.1983 77.3559 102.374 82.8977C106.247 75.8751 108.46 67.806 108.46 59.2239C108.46 32.0597 86.44 10.0657 59.2917 10.0657C32.1431 10.0813 10.144 32.0857 10.144 59.234Z" fill="white"/>
<path d="M99.5171 89.4594V90.0092H100.579V92.9186H101.254V90.0092H102.311V89.4594H99.5171ZM105.891 89.4594L104.954 91.9136L103.991 89.4594H103.023V92.9188H103.651V90.213H103.667L104.713 92.9188H105.179L106.205 90.213H106.231V92.9188H106.854V89.4594H105.891Z" fill="white"/>
</svg>
