<svg width="60" height="93" viewBox="0 0 60 93" fill="none" xmlns="http://www.w3.org/2000/svg">
<path d="M59.9844 0.0812378L57.3866 1.33141C57.3866 1.33141 57.2851 2.94859 57.1968 4.48145C56.4237 15.2159 56.3135 19.7879 56.34 23.1099C56.3754 31.6577 57.3297 41.5433 57.3297 41.5433L57.4668 43.2223L59.9844 42.0912C59.9844 42.0912 60.0198 1.78638 59.9844 0.0812378ZM54.1184 2.90427L51.6534 3.94221C51.6534 3.94221 51.5512 5.20142 51.4584 6.72987C50.5749 17.5085 50.4959 23.0082 50.4783 25.2832C50.412 33.2744 51.5386 44.3085 51.5386 44.3085L51.7103 45.89L54.6214 44.5648L54.7715 41.9988C55.2132 36.7244 55.2135 36.7465 55.3858 24.329C55.4962 16.8546 54.3122 5.39952 54.2857 5.02845C54.2327 4.26423 54.1184 2.90427 54.1184 2.90427ZM48.2428 5.6557L45.7467 6.80062C45.7467 6.80062 45.6497 8.04182 45.5569 9.56585C44.6734 20.3489 44.5937 25.8481 44.5716 28.1408C44.5098 36.1231 45.6363 47.1669 45.6363 47.1669L45.8002 48.669L48.7199 47.3438L48.8657 44.8564C48.8657 44.8564 49.3076 39.5914 49.4843 27.1606C49.5948 19.6863 48.4065 8.23108 48.38 7.86443C48.327 7.10021 48.2428 5.6557 48.2428 5.6557ZM42.4423 8.37261L39.872 9.46404C39.8581 10.3399 39.7962 11.2144 39.6865 12.0835C39.0519 18.3421 38.7391 24.6291 38.7496 30.9198C38.6524 38.8094 39.8582 49.9149 39.8582 49.9149L40.004 51.417L42.6545 50.1358L42.8581 47.7191C42.8581 47.7191 43.5113 41.9767 43.6571 29.4488C43.7278 22.9948 42.6633 11.673 42.6191 10.4847C42.5838 9.76467 42.4423 8.37261 42.4423 8.37261ZM36.3027 11.2043L34.3942 11.9773L34.1336 14.5838C33.0558 24.8942 32.9541 30.8846 32.9232 33.27C32.8304 41.1596 34.2484 52.3704 34.2484 52.3704L34.3985 54.0321L36.8057 52.8872L36.9472 50.405C36.9472 50.405 37.5212 44.5563 37.6935 32.0328C37.7907 25.4066 36.5715 14.2877 36.439 12.8211C36.3772 12.0967 36.3027 11.2043 36.3027 11.2043ZM30.2597 13.9298L28.9914 14.4777C28.9914 14.4777 28.9958 14.7254 28.9958 15.7503C28.2978 21.1484 27.0569 27.6509 26.9199 35.6289C26.7653 44.3622 28.5937 54.9199 28.5937 54.9199L28.7706 56.5851L30.2149 55.8914L30.4496 53.2634C31.5363 43.5449 31.7741 42.4622 31.8757 34.4357C31.9729 27.7344 30.8163 20.5343 30.2994 15.3879C30.2541 14.9033 30.2408 14.4162 30.2597 13.9298ZM24.4592 16.651L23.178 17.2343C23.178 17.2343 23.3504 24.2845 22.9528 27.2883C21.6629 34.4314 21.1861 36.9229 21.3584 40.3155C21.5229 43.3495 21.9096 46.3672 22.5154 49.3446C22.7981 51.2529 22.8907 52.4368 22.8907 52.4368L22.9442 59.3236L24.1857 58.7101C24.1857 58.7101 24.1849 52.9671 24.2202 52.6491C24.2556 52.331 24.2557 51.9998 24.3264 51.1737C24.5428 48.6469 25.3468 43.5008 25.6516 39.3087C26.0138 33.9105 24.8478 28.7945 24.6137 26.2677C24.49 24.9115 24.4018 23.0961 24.4592 16.651ZM18.7079 19.3766L17.4931 19.8934C17.5329 28.0834 17.533 30.4289 17.5242 31.4582C16.3403 37.5985 16.1145 37.9215 15.9245 40.9342C15.7788 43.3019 16.1721 44.9976 16.5785 47.0341C16.9364 48.801 17.3645 50.7052 17.3645 50.7052L17.3249 61.9482L18.6501 61.3071L18.6855 50.1487C18.6855 50.1487 19.7945 44.1414 19.9624 40.7047C20.1612 36.5743 18.7079 32.1567 18.7079 31.1407V19.3766ZM13.0135 22.0495L11.8384 22.5439V40.7305C11.8384 41.1723 10.9901 42.3256 10.778 43.0368C10.566 43.748 10.2522 44.7156 11.52 45.6036C11.9264 45.8907 11.8031 46.8094 11.8384 47.4145C11.8737 48.0197 11.8384 64.4572 11.8384 64.4572L13.0446 63.9447V45.7088C13.0446 45.161 14.8112 43.5979 14.2016 41.9281C13.9984 41.3759 13.2432 40.7177 13.2344 40.6029C13.1328 39.7459 13.0135 22.0495 13.0135 22.0495ZM7.46924 24.6068L6.37437 25.0753V66.9575L7.47873 66.4977L7.46924 24.6068ZM2.34947 26.9924L1.23648 27.4566L1.24511 69.3423L2.35379 68.8703L2.34947 26.9924ZM21.9502 73.645C18.6902 73.645 14.7676 75.2396 14.8383 78.9106C14.909 82.5815 18.7343 84.0088 21.9502 84.0088C25.1662 84.0088 28.6732 82.5815 28.7395 78.9106C28.8058 75.2396 25.2722 73.645 21.9502 73.645ZM6.28291 73.7174C5.07638 73.7177 3.79098 73.9025 2.66784 74.4094C0.251487 75.4961 0.931914 77.6338 1.37366 78.1772C1.89934 78.884 2.82259 79.2285 4.02414 79.5024C5.71161 79.8867 7.98195 80.0243 9.40879 80.2142C10.7384 80.3865 10.6323 81.6809 9.89454 82.0873C8.65323 82.7632 5.53936 82.7229 3.83864 81.7776C2.35437 80.9604 2.5134 80.1829 2.5134 79.9752H1.18816V83.5092H2.65921V83.2046C2.62387 82.6966 3.33477 83.0854 3.77652 83.24C6.20613 84.0793 9.62952 84.2295 11.5865 82.9484C13.7643 81.5216 13.058 78.8449 10.571 78.0409C8.6847 77.4268 5.63658 77.5282 4.09489 77.0556C2.89776 76.6889 3.2554 74.948 6.78937 75.085C10.2527 75.2175 11.0964 76.8168 11.0964 77.3955H12.2888V74.1713H11.0084C11.1409 74.7809 10.796 74.856 10.5442 74.613C10.0859 74.2293 8.29381 73.7171 6.28291 73.7174ZM30.1355 74.1402V75.3818H31.3106C31.96 75.4038 31.9603 75.7173 31.9603 76.0884V81.7647C31.9426 82.043 31.8718 82.3039 31.377 82.3393H30.1579V83.4876H35.6573V82.2901H34.4072C34.1289 82.3033 33.811 82.3391 33.811 81.7207L33.8153 77.0469L41.1438 83.4876H42.884V75.9288C42.884 75.6505 43.0254 75.3464 43.3258 75.3464H44.6027V74.1402H39.2802V75.3326H40.4544C40.7283 75.3679 41.0558 75.3678 41.0558 76.0349V79.9537L34.7781 74.1402H30.1355ZM45.8132 74.1488V75.3722H46.8468C47.2609 75.3554 47.6576 75.5399 47.9115 75.8675C47.9468 75.9205 51.6137 79.9493 51.6137 79.9493V82.0649C51.6137 82.2062 51.587 82.2858 51.3264 82.2858H49.807V83.4833H56.0752V82.2858H54.7059C54.4409 82.2858 54.4402 82.2902 54.4402 82.0649V79.9666C54.4402 79.9666 57.7488 76.0524 58.0138 75.7829C58.1913 75.5508 58.4566 75.4023 58.7472 75.3722H59.9577V74.1488H54.7767V75.3722H55.5627C55.8233 75.3722 55.8632 75.735 55.7395 75.9029L53.5834 78.4429C53.5834 78.4429 51.6976 76.1808 51.4325 75.9201C51.1675 75.6595 51.3619 75.3722 51.5033 75.3722H52.1521V74.1488H45.8132ZM21.8881 75.0366C24.1322 75.0366 25.8328 76.4154 25.8328 78.845C25.8239 81.2569 24.0615 82.5863 21.8881 82.6481C19.7147 82.71 17.9522 81.2746 17.9478 78.845C17.9434 76.4154 19.6441 75.0366 21.8881 75.0366ZM16.6139 86.5755C14.9088 86.5446 12.8324 87.472 12.8677 89.8265C12.903 92.181 15.0719 92.9187 16.8124 92.9187C18.6544 92.9187 19.6706 91.7393 19.7898 90.8558L19.1229 90.8731C18.8755 91.9642 17.6518 92.1983 16.8788 92.1983C15.5727 92.1838 14.5221 91.1198 14.5242 89.8136C14.5242 88.5369 15.2 87.5026 16.5518 87.3391C17.8329 87.1757 19.0344 87.8343 19.0918 88.868H19.7061V86.8974H19.0392C19.1099 87.3303 18.9201 87.3219 18.7743 87.1717C18.1272 86.7678 17.3766 86.5607 16.6139 86.5755ZM56.1735 86.7162C56.1206 86.7164 56.0677 86.7175 56.0148 86.7197C55.4024 86.7432 54.801 86.8893 54.2461 87.1494C53.3588 87.5315 53.0332 88.6231 53.5662 89.4288C53.9155 89.8624 54.4156 90.1481 54.9665 90.2287C55.8991 90.4236 56.8411 90.571 57.7887 90.6704C58.6545 90.8029 58.4866 91.5718 58.0449 91.8369C57.1172 92.42 56.0087 92.3397 54.869 91.6108C54.1048 91.1205 54.1796 90.6483 54.1796 90.5246H53.4911V92.6669H54.2642V92.4814C54.2465 92.1545 54.6176 92.393 54.8517 92.4814C56.124 92.9938 57.9173 93.0863 58.9422 92.3088C60.0863 91.443 59.7368 89.8312 58.4116 89.3408C57.4177 88.9742 55.8011 89.1025 55.0148 88.7447C54.3124 88.4266 54.5906 87.4148 56.4194 87.4634C58.2482 87.512 58.6903 88.6027 58.6903 88.9517H59.3132V86.9552H58.642C58.7082 87.3661 58.5663 87.3656 58.3719 87.2684C57.6969 86.9031 56.941 86.7132 56.1735 86.7162ZM8.93167 86.8715V87.6178H9.58134C9.83314 87.6178 9.89885 87.7594 9.89885 87.9758V91.5624C9.89885 91.7833 9.83314 91.8808 9.58134 91.8808H8.93167V92.6271H12.3026V91.8851H11.6443C11.3881 91.8851 11.3345 91.7833 11.3345 91.5624L11.357 87.9758C11.357 87.7594 11.4096 87.6135 11.6658 87.6135H12.3241V86.8715H8.93167ZM28.3685 86.8759V87.6222H29.0225C29.2743 87.6222 29.3357 87.7638 29.3357 87.9803V90.7981C29.3357 92.5695 30.7806 92.8878 32.1544 92.8878C33.5548 92.8878 34.8933 92.5568 34.8756 90.887V88.2365C34.8712 87.7992 35.0124 87.6352 35.1759 87.6352H35.8299V86.8932H32.9542V87.6403H33.603C33.8592 87.6403 33.9214 87.7811 33.9214 87.9975V90.8999C33.9214 91.5228 33.7668 92.2252 32.1544 92.2252C30.7143 92.2252 30.7895 91.0943 30.7895 90.8999V87.9803C30.7895 87.7594 30.8516 87.6179 31.1079 87.6179H31.761V86.8759H28.3685ZM20.7268 86.8888V89.0708L21.4291 89.0803C21.4291 87.5828 21.5041 87.6795 22.0961 87.6265H23.4213V91.6022C23.4213 91.8231 23.3547 91.9646 23.1029 91.9646H22.4489V92.6669H25.8466V91.956H25.1926C24.9408 91.956 24.8829 91.8145 24.8829 91.5936V87.6179H26.2081C26.7382 87.6797 26.8759 87.5291 26.8759 89.0708H27.5601V86.8888L20.7268 86.8888ZM1.08204 86.8933V87.6534H1.70066C1.95245 87.6534 2.01816 87.7683 2.01816 87.9804V91.567C2.01816 91.7834 1.96118 91.8853 1.70497 91.8853H1.05098V92.6317H4.46157V91.8853H3.79464C3.54284 91.8853 3.48058 91.7877 3.48058 91.5713V90.158H5.53488C7.39905 90.158 8.14998 89.6762 8.14998 88.4791C8.14998 87.2819 7.61105 86.8933 5.94125 86.8933H1.08204ZM36.6245 86.907V87.618H37.2431C37.4949 87.618 37.5572 87.7768 37.5572 87.9933V91.5756C37.5572 91.7964 37.5036 91.8983 37.2518 91.8983H36.5943V92.667H39.9911V91.9121H39.3371C39.0853 91.9121 39.0239 91.8145 39.0239 91.598V90.1848H40.6977C41.3515 90.1848 41.7003 90.3565 41.7003 90.7982V91.4298C41.7003 92.5739 42.4296 92.8128 43.1894 92.8128C44.0906 92.8128 44.3378 92.5168 44.3378 91.4876V91.0458H43.7278V91.3996C43.7411 91.7132 43.7595 92.0441 43.4768 92.0441C43.194 92.0441 43.167 91.801 43.167 91.642V90.812C43.1361 90.1141 42.7344 89.9948 42.1601 89.8535C42.8228 89.7298 43.5914 89.4376 43.5958 88.5187C43.5958 87.4364 43.0525 86.907 41.3871 86.907H36.6245ZM45.0884 86.907V87.6534H45.7424C45.9942 87.6534 46.0565 87.7993 46.0565 88.0157V91.598C46.0565 91.8145 45.9942 91.9207 45.7424 91.9207H45.0884V92.667H51.9312V90.4496H51.2686C51.2686 91.5673 51.1668 91.8451 50.5749 91.9026H47.5224V90.0916H48.9408C49.1307 90.0916 49.2497 90.1623 49.2497 90.4583V91.0769H49.8821V88.3781H49.2497V88.97C49.2497 89.2748 49.1307 89.341 48.9408 89.341H47.5224V87.6093H50.5749C51.1668 87.6668 51.2686 87.9759 51.2686 89.0847H51.9312V86.907H45.0884ZM3.48058 87.6223H5.43307C6.08244 87.6223 6.52449 87.8255 6.52449 88.5058C6.52449 89.1861 6.08213 89.3893 5.33557 89.3893H3.48058V87.6223ZM41.042 87.6387C41.0558 87.6387 41.0696 87.639 41.0834 87.6396C41.5676 87.656 41.9568 88.044 41.9746 88.5282C41.9746 89.0804 41.5901 89.4117 40.8789 89.4117H39.0239V87.6447H40.9497C40.9803 87.6412 41.0111 87.6392 41.042 87.6387Z" fill="white"/>
</svg>
