<svg width="183" height="97" viewBox="0 0 183 97" fill="none" xmlns="http://www.w3.org/2000/svg">
<g clip-path="url(#clip0_104_42)">
<path d="M90.4194 96.8539C68.6885 96.8539 50.3134 82.5148 44.1996 62.7734C44.1806 62.6782 44.2187 62.5829 44.3138 62.5658C44.4089 62.5467 44.5039 62.5849 44.5211 62.6802C50.9169 80.6208 69.0437 93.5554 90.4122 93.5554C111.78 93.5554 129.907 80.6208 136.303 62.6802C136.322 62.5849 136.417 62.5467 136.518 62.5658C136.613 62.5848 136.651 62.6801 136.632 62.7734C130.518 82.5148 112.15 96.8539 90.4194 96.8539Z" fill="white"/>
<path d="M68.7025 22.9481C68.6835 22.9138 68.5693 22.7995 68.5313 22.7728C68.3981 22.6795 68.3372 22.6851 68.2288 22.7118C68.1147 22.7384 68.0957 22.7727 68.0138 22.7994C67.9187 22.8261 67.8198 22.8261 67.7247 22.7927C67.5307 22.7318 67.4032 22.4836 67.2548 22.3156C67.2167 22.3633 67.1407 22.4566 67.1407 22.4566C66.6175 22.2282 66.0867 22.1272 65.516 22.3023C65.4589 22.3157 65.3638 22.249 65.301 22.228C65.0937 22.6446 64.6562 22.7117 64.2681 22.7923C64.0969 22.8266 63.9257 22.9066 63.7507 23.0007C63.6555 23.0673 63.5603 23.2761 63.4614 23.35C63.3663 23.4376 63.2598 23.3976 63.1723 23.491C62.8831 23.8068 62.6815 24.1696 62.6757 24.5056C62.6691 24.7676 62.5806 24.9759 62.3067 25.0968C62.1925 25.1502 62.0651 25.2644 62.0119 25.3791C61.717 25.9569 61.4146 26.5482 61.173 27.1598C61.0778 27.4083 61.0398 27.7513 60.9104 27.9796C60.703 28.3627 60.7963 28.7052 60.8724 29.0816C60.9485 29.4713 61.1672 30.3583 61.1672 30.3583C59.9515 30.385 58.0263 30.4517 56.4963 30.526C56.4828 30.3312 56.1006 29.7128 56.0264 29.5987C55.9503 29.4921 55.7581 28.9065 56.1405 28.5035C56.2737 28.3492 56.6979 27.7375 56.6979 27.3411C56.7112 26.36 56.3079 25.2849 56.2147 24.4854C56.6979 23.7865 56.1957 23.0811 56.2337 22.3688C56.2337 22.3479 56.1387 22.2621 56.1006 22.2145C56.5971 21.5829 56.7779 20.5348 56.4354 20.3398C55.3073 21.7308 55.9655 23.5852 55.2749 25.1172C55.2178 25.3256 55.1227 25.5204 55.3319 25.7487C55.526 25.9503 55.1799 26.7634 55.0505 26.6357C55.2408 26.2527 54.708 25.9168 54.4531 25.5675C54.377 25.4666 54.4531 25.3457 54.4531 25.2381C54.8888 24.7947 55.0981 24.3311 54.6814 23.7533C54.5673 23.5914 54.6053 23.3299 54.5672 23.1217C55.0637 22.9269 55.3396 22.5706 55.2254 22.1272C55.1113 21.6702 55.2445 21.2671 55.4157 20.8641C55.6231 20.3668 55.8457 19.8695 56.0607 19.3589C56.1939 19.0296 56.289 18.7139 56.054 18.4249C56.016 18.3773 55.997 18.2896 56.016 18.2572C56.2785 17.5382 56.6323 16.8663 57.0565 16.2079C57.3247 15.7039 57.633 15.2403 57.9754 14.79C53.2305 18.7275 49.3379 23.4916 46.5529 28.8469C46.5148 28.9078 46.4578 28.9402 46.4008 28.9402C46.3056 28.9402 46.2295 28.8602 46.2295 28.7649L46.243 28.6982C50.0146 20.2655 56.0815 13.1094 63.7926 8.00271C71.6983 2.76836 80.913 0 90.4294 0C99.9459 0 109.16 2.76836 117.066 8.00271C124.777 13.1094 130.844 20.2655 134.616 28.6982L134.629 28.7649C134.629 28.8582 134.553 28.9402 134.458 28.9402C134.401 28.9402 134.344 28.9059 134.306 28.8525C133.701 27.6699 133.031 26.5344 132.319 25.4257C131.984 25.1636 131.655 24.9217 131.467 24.5051C131.315 24.1556 130.694 24.0416 130.42 23.7325C130.139 23.4167 129.796 23.121 129.608 22.7513C129.226 21.9852 128.575 21.5553 127.824 21.1588C127.072 20.6548 126.475 19.9291 125.683 19.4118C125.607 19.3718 125.55 19.4785 125.493 19.5527C125.607 20.1038 126.029 20.5674 126.539 20.9167C127.022 21.3534 127.317 21.9515 127.962 22.2604C128.559 22.6233 129.029 23.1743 129.552 23.6446L129.533 23.6789L129.438 23.8064C129.286 23.6922 129.122 23.5782 128.968 23.4639L128.93 23.4849C129.006 23.6601 129.025 23.888 129.151 23.9619C129.533 24.2172 129.6 24.6203 129.547 24.9159C129.54 24.9635 129.533 25.0037 129.528 25.0437C129.514 25.097 129.509 25.1503 129.509 25.2055V25.2265C129.502 25.2665 129.502 25.2931 129.502 25.3407C129.502 25.5491 129.54 25.744 129.597 25.9388C129.616 26.0455 129.635 26.1538 129.673 26.2681C129.312 26.0262 128.943 25.8045 128.593 25.5491C128.517 25.4881 128.517 25.3274 128.478 25.2064V25.1521C128.631 24.9102 129.028 25.0644 129.357 25.0111C129.028 23.7681 127.908 23.2642 126.975 22.4915C126.539 22.1353 126.142 21.7388 125.759 21.3356C125.457 21.0063 125.135 20.6368 124.687 20.5294C124.591 20.6494 124.496 20.7444 124.432 20.8856C124.355 21.0341 124.393 21.4231 124.237 21.3895C123.882 21.3153 123.359 21.0333 123.043 21.2695C122.967 21.4447 123.036 21.7803 123.214 21.9079C123.657 22.2774 123.385 22.6335 123.043 22.9158C122.796 23.151 122.809 23.554 122.809 23.8698C122.809 23.9974 122.79 24.1923 122.847 24.2462C123.357 24.5755 123.081 25.0793 123.168 25.5027C123.162 25.852 123.13 26.3964 122.712 26.4435C121.605 26.5368 121.175 27.532 120.981 27.2497C120.672 26.9743 120.577 26.8868 120.376 26.692C120.127 26.4434 119.913 26.3225 119.558 26.5853C119.387 26.7129 119.082 26.6863 118.82 26.7263C118.743 26.4844 118.705 26.2761 118.629 26.1014C118.534 25.8662 118.515 25.6109 118.146 25.5504C118.032 25.537 117.857 25.5027 117.884 25.1673C117.979 24.0653 117.514 23.2255 116.87 22.3722C116.813 22.2846 116.567 22.1969 116.548 22.0898C116.491 21.8211 116.755 21.9889 116.938 21.8615C117.109 21.7415 116.925 21.5188 117.549 21.5658C118.515 21.6401 119.495 21.4458 120.589 21.3574C119.992 20.4839 119.898 19.8187 119.689 19.5837C119.518 19.3753 118.884 18.9723 118.359 18.6967C118.226 18.63 118.038 18.6033 117.876 18.6091C117.48 18.6225 117.146 18.5347 116.917 18.1856C117.26 17.6614 117.844 18.119 118.314 17.8765C118.143 17.6956 117.81 17.4532 117.804 17.3121C118.025 17.2112 118.414 17.4188 118.643 17.4664C118.776 17.2447 118.898 17.0833 119.025 16.8751C118.968 16.7685 118.744 16.5259 118.791 16.4385C119.309 15.9076 119.362 16.1226 119.113 15.4102C119.208 15.3359 119.333 15.6186 119.468 15.7731C119.507 15.5921 119.79 15.4102 119.2 15.0742C119.162 15.04 119.333 14.9733 119.434 14.899C119.51 14.8457 119.428 14.7582 119.51 14.7239C119.7 14.6496 119.94 14.6839 120.001 14.6172C119.497 14.214 119.109 13.7908 118.618 13.4213C118.262 13.1794 118.087 12.9039 118.329 12.6283C118.605 12.7826 118.886 12.9239 119.155 13.0786C119.326 13.2672 119.193 13.475 119.51 13.5893C119.586 13.5359 119.986 13.5093 120.007 13.4274C120.045 13.334 119.739 13.1451 119.704 13.078C119.552 12.8159 118.865 12.2919 118.631 12.285C118.337 12.2716 117.827 11.9222 117.604 11.7138C117.68 11.7805 117.471 11.8681 117.471 11.9356C117.3 12.6209 116.484 12.3588 116.223 11.9013C116.166 11.8136 115.974 11.8803 115.907 11.8003C115.445 11.2761 115.464 11.397 114.901 11.0812C114.863 11.047 114.887 10.9537 114.863 10.799C114.825 10.3958 114.286 10.1674 114.286 10.0666C114.286 9.95998 114.735 10.0191 114.79 9.32771C112.059 7.86281 109.187 6.65338 106.22 5.71267C105.83 5.766 105.448 5.85357 105.126 6.00156C104.577 6.2905 103.911 6.26366 103.287 6.14252C102.984 6.08919 102.857 6.21679 102.724 6.46498C102.61 6.67335 102.301 6.68674 102.113 6.8614L102.246 7.1436C102.094 7.42588 101.904 7.59397 101.702 7.96348C101.126 7.74177 100.635 7.45943 100.038 7.35867C99.3793 7.25201 98.8638 6.96895 98.4339 6.47849C97.9716 5.96784 97.3001 5.59158 96.8911 5.02722C96.7769 4.87294 96.7578 4.62395 96.7958 4.44929C96.8339 4.31406 97.0185 4.23419 97.1992 4.18714C97.3133 4.1737 97.4541 4.22715 97.5683 4.22144C97.6824 4.20799 97.9773 3.8921 98.0991 3.83838C96.6285 3.63001 95.1461 3.4756 93.6562 3.38151C94.0386 3.47484 94.3144 3.67708 94.4894 4.03325C94.2878 4.02653 94.1071 4.01229 93.9321 3.99896L93.9186 4.07903C94.885 4.50225 96.3481 5.01965 96.6768 5.34212C96.6959 5.42973 96.3553 5.51741 95.5829 5.73854C95.3927 5.77854 95.113 5.39584 93.9659 4.98595C93.9279 4.97252 93.7718 5.07367 93.7756 5.07938C93.8137 5.20129 93.8708 5.34145 93.9697 5.41536C94.3387 5.65725 94.7345 5.88584 95.1701 6.14107C94.9285 6.32201 94.4529 6.18108 94.6793 6.6921C94.1295 6.38964 93.6463 6.12763 93.1631 5.86555L93.1251 5.91888C93.3933 6.14058 93.6559 6.34904 93.9241 6.56408C93.9051 6.60408 93.886 6.63825 93.8479 6.68397C93.009 6.51635 92.2176 6.18005 91.4049 5.90464C91.3098 5.86464 91.0891 5.58214 91.0149 5.50138C91.0149 5.50138 90.2502 5.07797 89.8869 4.97054C89.5254 4.86388 89.0745 4.79541 88.6179 4.81636C88.1614 4.83731 88.0606 4.66204 88.0606 4.66204C88.0606 4.66204 88.2127 4.37978 88.4372 4.35978C88.6579 4.35978 89.2419 4.51408 89.592 4.53503C89.9477 4.57503 90.4709 4.62266 90.4709 4.62266C90.4329 4.46838 90.4138 4.4075 90.3947 4.30674C90.7771 4.25912 91.1596 4.20589 91.5762 4.15256C91.4811 3.94418 91.5572 3.5948 91.1273 3.89041C91.0512 3.94374 90.8513 3.83711 90.623 3.79711C90.7562 3.7095 90.817 3.67704 90.8779 3.62942C90.7447 3.60847 90.583 3.59527 90.4689 3.54194C90.3357 3.47527 90.2331 3.38759 90.1342 3.27979C88.6047 3.29322 87.0805 3.36747 85.5637 3.50823C85.7578 4.01221 86.3893 4.03227 86.7108 4.55625C86.201 4.48196 85.6912 4.34127 85.1947 4.28756C84.9131 4.29426 84.5497 4.46274 84.2814 4.43607C84.0912 4.41512 83.9656 3.98587 83.9466 3.99939C84.1673 3.78435 84.5782 3.68352 85.0063 3.56257C84.0189 3.66352 83.04 3.79782 82.0669 3.94563C79.1677 4.53684 78.3152 5.39697 77.906 5.81352C77.906 5.81352 78.4235 6.09584 78.5909 6.20326C78.4578 6.42497 78.3493 6.61984 78.2561 6.7745C78.7051 6.91545 79.8941 7.30539 80.2359 7.52709C80.8257 8.45429 81.967 8.38719 82.9068 8.70299C82.6995 8.9986 82.6518 9.31439 82.4711 9.59C82.4331 9.65095 82.4331 9.77099 82.4711 9.84547C82.5852 10.0874 82.6043 10.262 82.7527 10.5039C82.7907 10.5572 82.8859 10.6449 82.9467 10.6392C84.2822 10.6049 84.1947 10.2023 84.3964 9.134C85.047 9.04638 86.6581 9.09978 86.8259 8.32095C86.8449 7.88421 86.3826 7.48092 86.0478 7.37349C86.0668 7.33349 86.105 7.28015 86.124 7.23254C86.3713 7.21911 87.0029 6.97043 87.0828 6.8832C86.9686 6.72892 87.1208 6.70807 86.9115 6.45989C87.1398 6.41227 87.2539 6.41223 87.3072 6.25834C87.3205 6.21834 87.3072 6.10974 87.2882 6.04327C87.2746 6.00327 87.2813 5.95562 87.3015 5.92324C87.3396 5.88324 87.3777 5.85663 87.4538 5.86235C88.1253 5.93663 88.8234 6.0433 89.4872 6.205C89.7897 6.29262 90.1587 6.44016 90.3261 6.67539C90.6685 7.16585 91.1441 7.14575 91.574 7.3206C91.165 7.75734 91.4219 8.20069 91.8424 8.4763C92.7612 9.14161 93.7351 8.66492 94.5604 8.20761C94.8496 8.63769 95.6618 9.38355 95.9833 9.77325C95.9833 9.77325 95.8883 10.0354 96.2726 10.6803C96.6759 11.3456 97.783 11.6412 98.5475 11.9703C98.3116 12.2188 98.4334 12.3129 99.5349 12.8304C99.5159 13.0114 99.5283 13.2 99.4018 13.3076C99.2116 13.4829 98.9243 13.5562 98.7378 13.6032C98.4487 13.6908 98.1748 13.6241 97.9465 13.5897C97.6117 13.5364 97.2826 13.5154 96.9535 13.643C96.2952 13.8984 95.6789 13.824 95.0206 13.6363C94.0333 13.3541 93.0408 13.1123 92.0408 12.8839C91.6318 12.7829 91.2094 12.7638 90.8328 13.0724C90.7186 13.1657 90.4504 13.1257 90.2487 13.16C89.7313 13.24 88.4224 13.7111 87.9737 13.9395C89.155 13.6505 90.3629 13.3614 91.8393 13.4152C92.0885 13.4286 92.3225 13.4819 92.6573 13.6773C92.7524 13.7306 92.8589 13.8525 92.8284 13.9527C92.8149 14.027 92.6382 14.1146 92.5469 14.1146C92.2178 14.1412 91.8887 14.1281 91.5596 14.1281C91.5528 14.1681 91.5406 14.2024 91.5406 14.2347C91.8431 14.269 92.138 14.309 92.5146 14.349C92.2997 14.4632 92.1189 14.5506 91.9306 14.6582C92.0828 15.357 92.6477 15.639 93.3592 15.7735C93.5799 15.8135 93.9166 15.9488 94.1449 16.0288C94.5348 15.8273 94.904 15.6324 95.273 15.424C95.3682 15.3707 95.4936 15.4106 95.3871 15.544C95.1645 15.7658 95.3491 15.7524 95.292 15.8598C95.3872 15.9474 95.507 16.0483 95.6135 16.142C95.6516 16.1763 95.6516 16.2087 95.5945 16.243C95.1189 16.1687 95.1323 16.3706 94.554 16.283C94.516 16.3439 94.7061 16.4583 94.4018 16.4373C93.3288 16.4306 92.2474 16.2621 91.2072 16.6322C90.9866 16.7122 90.745 16.7674 90.5966 16.5046C90.5396 16.417 90.4444 16.2961 90.4634 16.2291C90.5014 16.1224 90.6347 16.0141 90.7393 15.9939C91.095 15.9139 91.4641 15.8738 91.8408 15.7184C91.8217 15.4967 91.0627 15.6175 90.3836 15.6118C90.1077 15.8268 89.1566 15.7928 88.5516 15.7395C87.8135 15.6462 86.8945 15.9279 86.5247 16.4853C86.4676 16.5786 86.5438 16.7338 86.6389 16.801C86.7341 16.8886 87.0745 16.9154 87.0555 17.0363C85.4784 17.0497 85.0558 16.6937 84.1967 16.7743C84.1967 16.801 84.3108 16.8352 84.2727 16.9228C84.3869 16.9438 84.5067 16.9629 84.6151 17.0029C84.7102 17.0372 84.9443 17.0504 85.106 17.0694C85.144 17.0904 85.144 17.1171 85.106 17.1361C84.8644 17.1361 84.4953 17.1571 84.402 17.1361C84.1871 17.0618 83.9798 17.1361 83.8257 17.1361C83.6545 17.3645 83.3691 17.3645 83.2283 17.5057C83.0761 17.6257 82.9335 18.1037 82.671 18.05C82.6643 17.8148 82.4236 17.7544 82.3361 17.6468C82.2981 17.6734 82.2409 17.6944 82.2029 17.7135C82.4711 18.5534 81.598 18.5064 81.364 18.9902C81.2689 19.0569 81.2879 18.9235 81.2499 18.9026C81.345 18.7826 81.3449 18.6875 81.402 18.6271C81.2688 18.4652 81.402 18.103 81.402 17.8679C81.364 17.8013 81.2309 17.8203 81.1947 17.9556C81.0806 18.3453 80.9265 18.661 81.0045 19.0642C81.2194 19.5009 81.0113 19.9378 80.5213 20.0587C80.3881 20.0987 80.1312 20.0587 80.1997 20.3341C80.1997 20.3408 80.0094 20.4274 79.8972 20.4274C79.2599 20.4207 78.9518 20.5284 78.6284 20.8105C77.7286 20.7228 77.1255 21.4085 76.3265 21.5965C75.8965 21.6974 75.4742 22.0333 75.206 22.3693C74.6562 23.2092 75.0729 24.385 74.8978 25.3257C74.8217 25.7491 74.3671 26.2194 74.3272 26.5487C74.3272 26.5487 74.251 26.5555 74.1939 26.5622C74.0607 26.5689 73.7032 26.6898 73.5833 26.5279C73.7355 26.2323 73.3493 25.7081 73.2351 25.2579C73.121 24.8346 73.1209 24.2701 73.3112 23.8669C73.4253 23.6317 73.4254 23.578 73.1971 23.3764C73.14 23.3288 73.1019 23.2621 73.0829 23.2088C72.9307 22.7853 72.7748 22.6645 72.3106 22.8596C72.0899 22.9662 71.9015 22.9262 71.7474 22.6647C71.6333 22.4761 71.3175 22.3555 71.0759 22.2481C70.8 22.1414 70.452 22.4157 70.1761 22.0532C70.081 21.9332 69.2896 22.1599 69.0081 22.1885C68.97 22.2094 69.1032 22.4506 68.932 22.5447C68.894 22.5789 68.8178 22.5979 68.8368 22.6589C68.8368 22.6798 68.9319 22.8399 68.8938 22.8806C68.8177 22.9473 68.7798 22.9473 68.7798 22.9473L68.7025 22.9481ZM121.66 14.3541C121.923 13.8434 121.331 13.568 120.962 13.3328C120.848 13.2661 120.667 13.3061 120.452 13.2851C120.567 13.447 120.605 13.5337 120.686 13.6344C120.591 13.6744 120.496 13.7087 120.411 13.7411C120.449 13.8611 120.468 13.9695 120.525 14.1444C120.27 14.0777 120.095 14.0242 119.914 13.9823L119.876 14.0567C120.131 14.1786 120.386 14.3052 120.675 14.4396C120.789 14.1305 120.956 14.0433 121.238 14.352C121.295 14.4263 121.634 14.4074 121.66 14.3541Z" fill="white"/>
<path fill-rule="evenodd" clip-rule="evenodd" d="M90.2786 3.58955C90.3927 4.13391 89.493 3.83814 89.1372 3.80462C89.5196 3.38121 89.9228 3.60974 90.2786 3.58955Z" fill="white"/>
<path d="M99.1978 14.0583C98.3664 14.1726 98.3988 14.4883 98.3056 14.7033C98.5948 14.7433 99.057 14.65 99.3196 14.6824L99.3576 14.7757C99.3005 14.8024 99.2625 14.8291 99.1217 14.8957C99.7666 15.1041 100.343 15.2788 100.94 15.4535C100.883 15.6287 100.645 15.8567 100.592 15.9978C100.921 16.1864 101.19 16.0779 101.209 16.1331C101.247 16.1864 100.832 16.3683 100.678 16.4758L100.716 16.5423C100.887 16.489 101.266 16.3341 101.321 16.3672C101.473 16.4815 101.131 16.5215 101.053 16.7436C101.243 16.7169 101.422 16.6502 101.515 16.6292C101.553 16.6825 101.477 16.7302 101.572 16.8045C101.264 17.3757 101.296 17.3823 100.935 17.1C100.897 17.0658 101.068 16.9458 100.921 16.8516C100.864 16.8173 100.826 16.9448 100.693 17.0001C100.598 16.9601 100.503 16.9391 100.385 16.9124C100.423 16.7982 100.68 16.6907 100.518 16.5227C100.008 16.6027 99.4775 16.6503 99.0152 16.6294C98.9011 16.6027 98.9391 16.5227 99.0085 16.5018C99.2844 16.5085 99.6858 16.4351 99.6667 16.3951C99.0427 16.2065 98.5196 16.086 97.9488 15.9114C97.4124 15.7361 96.4993 15.8713 96.2919 15.5081C96.1017 15.1721 96.9558 14.5406 97.8613 14.0366C98.0554 13.9166 98.5919 13.8149 99.1169 13.7947C99.174 13.8213 99.0646 14.0046 99.1978 14.0583Z" fill="white"/>
<path fill-rule="evenodd" clip-rule="evenodd" d="M125.458 21.4494C125.648 21.96 125.955 22.2626 125.949 22.5582C125.527 22.3498 125.304 22.1147 125.312 21.8325C125.318 21.7125 125.458 21.7182 125.458 21.4494Z" fill="white"/>
<path d="M92.2383 14.9789C92.3144 14.9522 92.4285 14.8112 92.4931 14.7571C92.7557 15.3887 93.4387 15.1468 93.9029 15.456C93.6689 15.5093 93.4595 15.5626 93.2445 15.6178C92.6738 15.3693 92.6207 15.3282 92.2383 14.9789Z" fill="white"/>
<path d="M92.7812 13.3193C93.3386 13.2183 94.0235 13.5277 94.5334 14.0248L94.4763 14.1447C93.704 13.9363 93.1427 13.5679 92.7812 13.3193Z" fill="white"/>
<path d="M111.841 16.1747C111.918 15.9464 111.88 15.7046 111.803 15.597C111.549 15.4427 111.575 15.4349 111.32 15.281C111.334 15.241 111.282 15.0661 111.282 15.019C111.503 14.9124 111.558 14.8381 111.705 14.7168C111.933 14.4278 111.609 14.4009 111.666 14.3204C111.942 13.971 112.317 13.7627 112.673 13.6753C112.844 13.8296 113.015 13.9844 113.236 14.1792C113.229 14.1927 113.179 14.3336 113.141 14.401C113.369 14.616 113.725 14.8645 113.845 15.4759C113.274 15.9799 112.777 16.4502 112.443 16.6318C112.271 16.7384 112.026 16.7326 111.906 16.6451C111.83 16.5785 111.765 16.4566 111.841 16.1747Z" fill="white"/>
<path d="M113.372 13.8499C113.334 13.7433 113.314 13.6483 113.276 13.5475C113.162 13.5818 113.124 13.5134 112.907 13.5876C113.021 13.3861 113.041 13.3793 113.109 13.2719L112.995 13.3328C112.9 13.1975 112.843 13.0371 112.732 12.9363C112.58 12.7954 112.377 12.708 112.257 12.6408C112.39 12.3989 112.525 12.1838 112.666 11.9621C112.867 11.9621 113.143 11.9622 113.491 11.9554C113.189 12.4257 113.339 12.54 113.807 12.4661C114.211 12.4051 114.458 12.5537 114.431 12.9902C114.418 13.1255 114.45 13.2656 114.45 13.306C115.363 13.9713 116.47 14.3004 117.054 15.2814C117.463 14.8984 118.114 15.2148 117.927 16.1887C118.042 16.2287 118.156 16.2821 118.27 16.3373C118.263 16.3849 118.263 16.4305 118.263 16.4382C118.092 16.7473 116.694 16.6935 116.116 16.9423C115.807 17.0699 116.002 16.566 115.088 17.0088C115.492 16.1218 115.678 16.384 115.893 16.1958C115.591 16.1348 115.242 16.0548 114.786 15.9471C115.115 15.7662 115.396 15.3358 114.919 15.3021C114.843 15.2954 114.843 15.1269 114.786 15.0065H115.296C115.334 14.9722 115.353 14.9323 115.391 14.9132C115.163 14.5302 115.014 14.4091 114.666 14.1069C114.337 14.0934 113.726 14.4966 113.814 13.6366C113.624 13.7242 113.505 13.7758 113.372 13.8499L113.352 13.8517Z" fill="white"/>
<path d="M126.505 24.4732C126.391 23.8214 126.001 23.6129 125.794 23.1695C125.756 23.0895 125.927 22.9277 126.022 22.7733C126.458 23.2369 126.795 23.8416 126.84 24.1911C126.859 24.3995 126.726 24.2254 126.62 24.5204C126.582 24.507 126.505 24.5074 126.505 24.4732Z" fill="white"/>
<path d="M88.2249 78.0462C88.2249 77.8748 87.8691 77.97 87.6275 78.0081C87.5514 78.015 87.8291 78.1606 86.916 78.7415C87.0492 78.7415 87.6883 78.7548 87.4733 78.8557C86.7409 79.4462 86.0161 79.8366 85.2251 80.3204C85.149 80.3585 85.0311 80.3777 84.9703 80.3586C84.5803 80.1034 84.0837 80.3585 83.6956 79.8347C83.5434 79.6138 83.2924 79.6443 83.1935 79.5796C83.1554 79.5662 82.9861 79.1757 82.9252 79.21C82.9062 79.2291 82.7235 79.3244 82.735 79.3815C82.754 79.4577 82.8682 79.5967 82.8682 79.5967C83.0584 79.8043 83.359 80.0329 83.5131 80.2348C83.5321 80.2729 83.4995 80.4423 83.3988 80.6042C83.3608 80.6804 83.3609 80.8728 83.456 81.048C83.4941 81.1432 83.6842 81.1051 83.6576 81.2766C83.6005 81.6251 82.927 82.1165 82.5294 82.0956C82.0253 82.0889 81.5232 82.0385 81.0267 81.9814C80.6043 81.9242 80.241 82.2366 80.3551 82.6594C80.4312 82.9013 80.3415 82.9756 80.1648 82.9622C79.7082 82.9241 79.2917 82.8289 78.8826 82.5851C78.8256 83.2842 78.8893 83.3584 79.4667 83.465C79.5618 83.4841 79.638 83.6804 79.7616 83.827C79.3526 83.9603 78.8028 83.8651 78.9169 84.4118C78.955 84.5451 78.8599 84.7069 78.8218 84.8479C78.5802 84.9431 78.1179 84.9432 78.0304 85.1032C77.9162 85.6803 78.5212 85.6002 78.9359 85.8764C78.9549 86.0478 78.955 86.2117 78.9169 86.2802C78.7837 86.4326 78.447 86.663 78.2853 86.7849C78.2986 86.9792 78.3233 87.1278 78.2472 87.2078C78.1331 87.2268 77.9581 87.3031 77.8382 87.3222C77.9143 87.705 78.1674 87.9545 78.2606 88.1088C78.2471 88.1849 77.9581 88.0325 77.7697 88.0134L78.3747 88.4097C78.7228 88.6116 78.5763 88.6782 78.9054 88.9811C79.2136 89.2573 79.3678 89.3105 79.3545 89.3448C79.3355 89.402 79.4116 89.6935 78.468 89.383C77.3475 89.0192 77.0582 88.8782 75.7431 87.602C75.7431 87.602 75.0393 86.9698 74.5618 85.6401C74.5238 85.5449 74.4095 85.4248 74.4666 85.3448C74.5047 85.2877 74.5808 85.2687 74.7292 85.2877C74.7159 85.1544 74.7427 84.9448 74.6721 84.8915C74.558 84.7962 74.1679 85.0058 74.1489 84.7392C74.3011 84.343 74.3697 84.4306 74.4382 84.0477C74.4572 83.9335 74.3239 83.7983 74.3239 83.2421C74.3239 83.1469 74.4762 83.1087 74.5447 83.1658C74.6588 83.4077 74.752 83.7429 74.9213 83.8972C74.7311 82.7411 74.8832 83.0783 74.7691 82.2307C74.6359 82.0593 74.5789 82.1544 74.5351 82.1544V82.9811C74.2003 82.943 74.0786 82.8288 74.1528 82.3165C74.1663 82.2403 74.2859 82.2974 74.1594 82.0536C74.0452 81.846 74.0833 81.5221 74.0833 81.3488C74.3059 80.7507 74.1023 80.2003 73.855 79.6899C73.5259 79.0575 73.8618 79.2536 73.9312 78.9907C74.266 77.8879 74.7911 76.8071 74.481 75.5774C74.3859 75.2289 74.1994 74.8251 74.538 74.4689C74.5761 74.4308 74.5571 74.3165 74.538 74.2479C74.3364 73.6575 74.6141 73.1394 74.7396 72.589C74.8157 72.2195 74.8538 71.8366 74.8919 71.4594C74.968 70.8404 75.044 70.21 74.9869 69.591C75.0003 69.1548 74.9734 68.9453 75.025 68.6157C75.063 68.3262 75.2876 68.052 75.3009 67.7549C75.3144 67.0825 75.2627 66.4101 75.2247 65.7391C75.218 65.6248 75.1867 65.4763 75.1106 65.3906C74.285 64.3963 73.4594 63.415 72.3389 62.7566C71.5342 62.2804 71.1651 61.4595 70.7275 60.4788C70.6514 60.3264 70.5754 60.1092 70.4727 59.8806C77.2575 59.6656 84.0292 59.5447 90.7872 59.5513C95.8677 59.5513 101.787 59.5857 106.874 59.7057C106.836 60.4045 106.798 61.2107 106.798 61.3451C106.722 62.3127 106.556 62.366 106.134 63.2534C105.77 63.9582 105.167 64.2745 104.637 64.6783C103.811 65.3106 102.845 65.7392 102.093 66.4725C101.825 66.6877 101.583 67.0228 101.281 67.1104C100.012 67.4399 100.2 68.6418 99.7378 69.5562C99.3079 70.5314 98.7505 70.9601 98.1684 71.9553C97.9135 72.3038 97.4303 72.519 97.067 72.7818C96.812 73.4066 96.2356 73.6352 95.7315 73.9647C95.2692 74.098 94.7594 73.7933 94.2819 73.7419C93.8329 73.6657 93.2755 73.9838 93.1138 74.3133C92.2082 74.1609 91.6509 74.5608 90.8857 74.9113C90.3017 75.1589 90.1609 75.6846 90.1743 76.2084C90.1878 76.6122 90.022 76.8408 89.7385 76.9951C89.1412 77.3246 88.7114 77.8008 88.2358 78.2922C88.0341 78.4998 87.8724 78.5206 87.8458 78.5206C87.8389 78.5273 87.6827 78.5414 88.2249 78.0462Z" fill="white"/>
<path d="M160.571 58.7283C160.008 57.2434 159.438 55.7718 158.867 54.3003C155.739 54.0448 152.605 53.8098 149.478 53.5879L147.766 57.7607C145.867 57.6331 143.967 57.5052 142.068 57.3978C145.31 50.02 148.544 42.6488 151.786 35.3113C152.577 35.3723 153.376 35.4256 154.168 35.4866C154.967 35.5475 155.759 35.6008 156.557 35.6675C159.792 43.5022 163.027 51.3572 166.262 59.2188C164.369 59.0435 162.471 58.8895 160.571 58.7283ZM151.364 48.9853C153.236 49.1263 155.108 49.2675 156.981 49.4153C156.041 46.9896 155.109 44.5708 154.169 42.1451C153.237 44.4297 152.297 46.7075 151.364 48.9853Z" fill="white"/>
<path d="M64.7093 56.296C61.5953 48.8107 58.4812 41.359 55.3672 33.914C57.3537 33.8263 59.347 33.7464 61.3335 33.6722C63.1312 38.3622 64.9307 43.0523 66.7292 47.7424C68.5288 42.9448 70.3264 38.1471 72.1249 33.3562C74.1182 33.3086 76.1047 33.2686 78.098 33.2343C74.9773 40.8607 71.8634 48.5073 68.7494 56.1741C68.0778 56.195 67.4005 56.2084 66.7292 56.2274C66.0576 56.2484 65.388 56.277 64.7093 56.296Z" fill="white"/>
<path d="M5.3757 51.2363C5.3757 54.475 6.58372 55.9935 9.40914 55.7046C12.2412 55.4223 13.4493 53.6753 13.4493 50.4366V36.7898C15.2413 36.6146 17.0396 36.4537 18.8316 36.2992V50.0336C18.8316 56.3498 15.6839 59.9513 9.40914 60.5695C3.1408 61.1942 0 58.2177 0 51.9015V38.1672C1.79204 37.9724 3.58384 37.7775 5.3757 37.596" fill="white"/>
<path d="M133.31 42.6153C136.814 44.06 141.605 45.8205 141.605 50.5038C141.605 55.2947 138.19 57.8212 132.217 57.5255C128.693 57.3503 125.009 55.2476 123.962 54.616C123.924 54.595 123.886 54.5761 123.848 54.5494V49.1739C123.962 49.2406 124.063 49.3015 124.169 49.3823C127.384 51.4182 130.041 52.5672 132.209 52.836C134.793 53.1653 135.994 52.3926 135.994 50.8404C135.994 50.1953 135.458 49.5571 134.295 48.9858C133.631 48.6499 132.832 48.3204 131.987 47.9711C128.228 46.4458 123.558 44.9543 123.558 39.7468C123.558 35.144 127.611 33.2491 131.631 33.444C134.705 33.5849 138.369 35.1373 140.087 36.1384C140.125 36.1594 140.163 36.1861 140.201 36.2051V41.5805C140.087 41.5139 139.986 41.4453 139.88 41.3721C138.82 40.6935 135.088 38.4492 131.632 38.288C129.893 38.208 129.142 38.839 129.142 39.6519C129.142 40.2298 129.699 40.9152 130.847 41.5133C131.524 41.8761 132.397 42.2323 133.31 42.6153Z" fill="white"/>
<path d="M116.217 47.4465C118.002 50.4299 119.781 53.4133 121.566 56.4034C119.553 56.3291 117.533 56.2624 115.519 56.2085C113.942 53.4603 112.365 50.7189 110.781 47.9909C109.552 47.9642 108.325 47.9374 107.097 47.9165V55.9998C105.331 55.9655 103.567 55.9465 101.802 55.9256V33.194C105.855 33.234 109.909 33.3217 113.962 33.4293C118.184 33.5436 120.586 36.4329 120.586 40.7803C120.586 45.0269 118.264 46.7477 116.217 47.4465ZM107.07 43.173C108.721 43.213 110.379 43.2473 112.029 43.2797C114.506 43.3464 115.003 41.9627 115.003 40.7935C115.003 39.6244 114.498 38.2066 112.029 38.1461C110.378 38.0985 108.721 38.0662 107.07 38.0319" fill="white"/>
<path d="M47.7768 57.015C47.7633 49.4356 47.7578 41.8628 47.7578 34.2834C49.5422 34.1825 51.3348 34.0949 53.12 34.0214V56.7461C51.3413 56.8337 49.5552 56.9214 47.7768 57.015Z" fill="white"/>
<path d="M85.6146 46.7275V51.0817C89.6749 51.0474 93.7284 51.0474 97.7887 51.0817V55.8792C91.9834 55.8392 86.1783 55.8582 80.3799 55.9325C80.3665 48.3531 80.3608 40.7805 80.3608 33.2011C86.1258 33.1268 91.8973 33.1078 97.6621 33.1478V37.9185C93.6489 37.8919 89.6357 37.8919 85.6225 37.9185V41.9367C88.3472 41.9157 91.0718 41.9099 93.7966 41.9156V46.72C91.0718 46.7133 88.3394 46.7207 85.6146 46.7275Z" fill="white"/>
<path d="M37.9648 34.8479C39.7435 34.7412 41.5217 34.6329 43.3 34.5321V57.2636C41.8447 57.3436 40.3941 57.4312 38.9378 57.5256L38.8808 57.438C35.4582 53.0973 32.0354 48.7769 28.6195 44.4698V58.2444C26.8408 58.3796 25.0625 58.5199 23.2842 58.661V35.9295C25.0096 35.7942 26.7337 35.654 28.4584 35.5262L28.5155 35.6006C31.6631 39.5516 34.8106 43.5294 37.9649 47.5139" fill="white"/>
<path d="M168.517 36.6957C170.296 36.8576 172.067 37.0317 173.846 37.2063V55.1738C176.899 55.4763 179.953 55.7919 183 56.1348V60.8987C178.188 60.3673 173.369 59.8707 168.544 59.4271C168.537 51.8544 168.517 44.2751 168.517 36.6957Z" fill="white"/>
</g>
<defs>
<clipPath id="clip0_104_42">
<rect width="183" height="97" fill="white"/>
</clipPath>
</defs>
</svg>
