<svg width="93" height="97" viewBox="0 0 93 97" fill="none" xmlns="http://www.w3.org/2000/svg">
<g clip-path="url(#clip0_104_22)">
<path d="M46.657 6.10352e-05C44.4098 0.484524 24.6322 3.10042 22.17 4.34334C21.6026 5.49096 20.4168 9.07148 20.0407 9.638C18.4513 9.98348 12.0103 11.2211 11.6054 11.458C11.3787 12.1464 9.89868 15.0849 9.558 15.429C8.19393 15.7732 1.83485 16.9642 1.04078 17.5386C0.587406 20.2919 -1.14355 47.8413 10.2132 65.8525C21.5699 83.8636 41.4327 95.8524 46.657 97H46.698C51.9223 95.8524 71.7441 83.8636 83.1008 65.8525C94.4563 47.84 92.7702 20.2919 92.3142 17.5386C91.5188 16.9642 85.1584 15.7732 83.797 15.429C83.4563 15.0849 81.9776 12.1464 81.7496 11.458C81.346 11.2211 74.9063 9.98216 73.3142 9.638C72.9382 9.07148 71.7536 5.49096 71.1849 4.34334C68.7307 3.10439 48.9357 0.493787 46.657 6.10352e-05ZM46.657 7.03204C48.6042 7.45297 65.5246 9.73728 67.6225 10.7962C68.106 11.777 69.1044 14.8205 69.4242 15.3049C70.783 15.5988 76.3261 16.6329 76.672 16.8354C76.8659 17.4231 78.0996 19.9748 78.3918 20.2687C79.5567 20.5626 85.0018 21.5576 85.6806 22.0474C86.0698 24.4009 87.5255 47.935 77.8185 63.3292C68.1115 78.7248 51.1636 88.9885 46.698 89.968H46.657C42.1914 88.9885 25.2434 78.7235 15.5364 63.3292C5.83073 47.935 7.28652 24.4009 7.67438 22.0474C8.35445 21.5563 13.7983 20.5626 14.9632 20.2687C15.2554 19.9748 16.489 17.4231 16.683 16.8354C17.0289 16.6329 22.531 15.5988 23.8898 15.3049C24.2109 14.8205 25.2477 11.777 25.7325 10.7962C27.8356 9.73331 44.736 7.44502 46.657 7.03204Z" fill="white"/>
<path d="M49.7689 14.5604C49.1309 14.624 49.0358 15.075 49.0318 15.2636C48.9008 37.2974 48.963 60.6723 48.7861 83.3083C48.9303 84.0244 50.0608 82.9238 50.7107 82.5638C58.9842 77.9693 84.7894 52.7231 69.9563 43.6811C81.3144 36.1786 79.2902 29.0185 74.2559 25.1084C63.8465 17.0195 51.9703 15.0112 50.5879 14.6432C50.2423 14.5512 49.9816 14.5393 49.7689 14.5604ZM56.6891 23.6193C56.8503 23.5306 63.5225 26.0293 67.1718 28.5417C71.3558 31.422 69.9393 34.1901 67.4994 35.8632C66.1747 36.7752 57.9765 42.7231 56.6072 43.0606C56.5771 41.913 56.5712 28.9722 56.6891 23.6193ZM62.7904 48.8103C63.7045 48.8387 64.5728 49.1339 65.2063 49.8031C65.7724 50.3497 68.2676 53.0669 62.9542 60.8474C60.9756 64.3763 56.8267 68.8023 56.3615 69.2444C56.3052 69.2603 56.2819 69.1726 56.2387 69.203C56.2819 66.6735 56.2148 54.4283 56.3615 51.0026C56.6554 50.8478 60.0482 48.725 62.7904 48.8103Z" fill="white"/>
<path d="M21.5641 22.4944C20.8841 22.7883 15.0911 26.5144 14.508 27.1021C14.3468 32.2962 15.7253 46.3098 20.8028 57.2473C21.4449 58.6305 22.142 59.9277 22.8968 61.1018C24.3447 63.6274 24.4259 63.4275 26.111 61.0092C27.2785 59.4141 28.9623 57.0487 29.3843 56.5616C29.966 58.522 33.728 70.75 39.0192 78.14C41.3647 81.4188 44.9668 84.5161 44.9524 83.2401C44.8083 70.754 44.4545 16.7061 44.8423 14.5035C43.2817 14.4664 38.1622 15.1402 37.1493 15.671C37.0655 17.6472 37.853 54.7072 37.3682 58.9217C33.7818 50.0955 32.5579 26.8043 33.2668 17.1945C31.3262 17.5863 26.5932 19.5043 25.9145 20.1913C25.0418 21.9557 26.2329 41.3077 27.4725 47.8029C27.0492 48.4767 25.8293 50.306 25.6354 50.5998C23.1798 46.1378 20.833 32.3425 21.5641 22.4944Z" fill="white"/>
</g>
<defs>
<clipPath id="clip0_104_22">
<rect width="92" height="97" fill="white" transform="translate(0.674316)"/>
</clipPath>
</defs>
</svg>
